<mxfile host="Electron" agent="Mozilla/5.0 (Windows NT 10.0; Win64; x64) AppleWebKit/537.36 (KHTML, like Gecko) draw.io/26.1.1 Chrome/132.0.6834.210 Electron/34.3.3 Safari/537.36" version="26.1.1">
  <diagram name="Page-1" id="5f0bae14-7c28-e335-631c-24af17079c00">
    <mxGraphModel dx="1354" dy="656" grid="1" gridSize="10" guides="1" tooltips="1" connect="1" arrows="1" fold="1" page="1" pageScale="1" pageWidth="1390" pageHeight="980" background="none" math="0" shadow="0">
      <root>
        <mxCell id="0" />
        <mxCell id="1" parent="0" />
        <mxCell id="39150e848f15840c-1" value="Education" style="verticalAlign=top;align=left;spacingTop=8;spacingLeft=2;spacingRight=12;shape=cube;size=10;direction=south;fontStyle=4;html=1;rounded=0;shadow=0;comic=0;labelBackgroundColor=none;strokeWidth=1;fontFamily=Verdana;fontSize=12;" parent="1" vertex="1">
          <mxGeometry x="40" y="40" width="330" height="240" as="geometry" />
        </mxCell>
        <mxCell id="39150e848f15840c-2" value="Store" style="verticalAlign=top;align=left;spacingTop=8;spacingLeft=2;spacingRight=12;shape=cube;size=10;direction=south;fontStyle=4;html=1;rounded=0;shadow=0;comic=0;labelBackgroundColor=none;strokeWidth=1;fontFamily=Verdana;fontSize=12" parent="1" vertex="1">
          <mxGeometry x="965" y="570" width="365" height="390" as="geometry" />
        </mxCell>
        <mxCell id="39150e848f15840c-3" value="Member" style="verticalAlign=top;align=left;spacingTop=8;spacingLeft=2;spacingRight=12;shape=cube;size=10;direction=south;fontStyle=4;html=1;rounded=0;shadow=0;comic=0;labelBackgroundColor=none;strokeWidth=1;fontFamily=Verdana;fontSize=12" parent="1" vertex="1">
          <mxGeometry x="485" y="320" width="240" height="190" as="geometry" />
        </mxCell>
        <mxCell id="39150e848f15840c-5" value="Courses" style="shape=component;align=left;spacingLeft=36;rounded=0;shadow=0;comic=0;labelBackgroundColor=none;strokeWidth=1;fontFamily=Verdana;fontSize=12;html=1;" parent="1" vertex="1">
          <mxGeometry x="50" y="80" width="110" height="60" as="geometry" />
        </mxCell>
        <mxCell id="39150e848f15840c-7" value="Products" style="shape=component;align=left;spacingLeft=36;rounded=0;shadow=0;comic=0;labelBackgroundColor=none;strokeWidth=1;fontFamily=Verdana;fontSize=12;html=1;" parent="1" vertex="1">
          <mxGeometry x="1000" y="640" width="120" height="60" as="geometry" />
        </mxCell>
        <mxCell id="39150e848f15840c-10" value="Account" style="shape=component;align=left;spacingLeft=36;rounded=0;shadow=0;comic=0;labelBackgroundColor=none;strokeWidth=1;fontFamily=Verdana;fontSize=12;html=1;" parent="1" vertex="1">
          <mxGeometry x="540" y="380" width="120" height="60" as="geometry" />
        </mxCell>
        <mxCell id="PEAU8iN8RodinJspLY0A-5" value="Admin" style="verticalAlign=top;align=left;spacingTop=8;spacingLeft=2;spacingRight=12;shape=cube;size=10;direction=south;fontStyle=4;html=1;rounded=0;shadow=0;comic=0;labelBackgroundColor=none;strokeWidth=1;fontFamily=Verdana;fontSize=12" parent="1" vertex="1">
          <mxGeometry x="960" y="45" width="370" height="150" as="geometry" />
        </mxCell>
        <mxCell id="PEAU8iN8RodinJspLY0A-6" value="Admin_Users" style="shape=component;align=left;spacingLeft=36;rounded=0;shadow=0;comic=0;labelBackgroundColor=none;strokeWidth=1;fontFamily=Verdana;fontSize=12;html=1;" parent="1" vertex="1">
          <mxGeometry x="980" y="80" width="120" height="60" as="geometry" />
        </mxCell>
        <mxCell id="PEAU8iN8RodinJspLY0A-7" value="SuperAdmin" style="shape=component;align=left;spacingLeft=36;rounded=0;shadow=0;comic=0;labelBackgroundColor=none;strokeWidth=1;fontFamily=Verdana;fontSize=12;html=1;" parent="1" vertex="1">
          <mxGeometry x="1160" y="80" width="120" height="60" as="geometry" />
        </mxCell>
        <mxCell id="PEAU8iN8RodinJspLY0A-10" value="Social" style="verticalAlign=top;align=left;spacingTop=8;spacingLeft=2;spacingRight=12;shape=cube;size=10;direction=south;fontStyle=4;html=1;rounded=0;shadow=0;comic=0;labelBackgroundColor=none;strokeWidth=1;fontFamily=Verdana;fontSize=12" parent="1" vertex="1">
          <mxGeometry x="40" y="600" width="440" height="340" as="geometry" />
        </mxCell>
        <mxCell id="PEAU8iN8RodinJspLY0A-11" value="Feed" style="shape=component;align=left;spacingLeft=36;rounded=0;shadow=0;comic=0;labelBackgroundColor=none;strokeWidth=1;fontFamily=Verdana;fontSize=12;html=1;" parent="1" vertex="1">
          <mxGeometry x="70" y="630" width="90" height="60" as="geometry" />
        </mxCell>
        <mxCell id="PEAU8iN8RodinJspLY0A-12" value="Messaging" style="shape=component;align=left;spacingLeft=36;rounded=0;shadow=0;comic=0;labelBackgroundColor=none;strokeWidth=1;fontFamily=Verdana;fontSize=12;html=1;" parent="1" vertex="1">
          <mxGeometry x="280" y="630" width="120" height="60" as="geometry" />
        </mxCell>
        <mxCell id="PEAU8iN8RodinJspLY0A-13" value="Friends" style="shape=component;align=left;spacingLeft=36;rounded=0;shadow=0;comic=0;labelBackgroundColor=none;strokeWidth=1;fontFamily=Verdana;fontSize=12;html=1;" parent="1" vertex="1">
          <mxGeometry x="70" y="865" width="120" height="60" as="geometry" />
        </mxCell>
        <mxCell id="PEAU8iN8RodinJspLY0A-14" value="Groups" style="shape=component;align=left;spacingLeft=36;rounded=0;shadow=0;comic=0;labelBackgroundColor=none;strokeWidth=1;fontFamily=Verdana;fontSize=12;html=1;" parent="1" vertex="1">
          <mxGeometry x="220" y="865" width="120" height="60" as="geometry" />
        </mxCell>
        <mxCell id="PEAU8iN8RodinJspLY0A-19" value="" style="ellipse;whiteSpace=wrap;html=1;align=center;aspect=fixed;fillColor=none;strokeColor=none;resizable=0;perimeter=centerPerimeter;rotatable=0;allowArrows=0;points=[];outlineConnect=1;" parent="1" vertex="1">
          <mxGeometry x="665" y="620" width="10" height="10" as="geometry" />
        </mxCell>
        <mxCell id="PEAU8iN8RodinJspLY0A-24" value="" style="ellipse;whiteSpace=wrap;html=1;align=center;aspect=fixed;fillColor=none;strokeColor=none;resizable=0;perimeter=centerPerimeter;rotatable=0;allowArrows=0;points=[];outlineConnect=1;" parent="1" vertex="1">
          <mxGeometry x="430" y="485" width="10" height="10" as="geometry" />
        </mxCell>
        <mxCell id="PEAU8iN8RodinJspLY0A-25" value="Resourses" style="shape=component;align=left;spacingLeft=36;rounded=0;shadow=0;comic=0;labelBackgroundColor=none;strokeWidth=1;fontFamily=Verdana;fontSize=12;html=1;" parent="1" vertex="1">
          <mxGeometry x="210" y="80" width="120" height="60" as="geometry" />
        </mxCell>
        <mxCell id="PEAU8iN8RodinJspLY0A-26" value="&amp;nbsp; Carts" style="shape=component;align=left;spacingLeft=36;rounded=0;shadow=0;comic=0;labelBackgroundColor=none;strokeWidth=1;fontFamily=Verdana;fontSize=12;html=1;" parent="1" vertex="1">
          <mxGeometry x="1190" y="640" width="120" height="60" as="geometry" />
        </mxCell>
        <mxCell id="PEAU8iN8RodinJspLY0A-27" value="OrderProcessing" style="shape=component;align=left;spacingLeft=36;rounded=0;shadow=0;comic=0;labelBackgroundColor=none;strokeWidth=1;fontFamily=Verdana;fontSize=12;html=1;" parent="1" vertex="1">
          <mxGeometry x="1105" y="805" width="150" height="60" as="geometry" />
        </mxCell>
        <mxCell id="PEAU8iN8RodinJspLY0A-28" value="Notifications" style="shape=component;align=left;spacingLeft=36;rounded=0;shadow=0;comic=0;labelBackgroundColor=none;strokeWidth=1;fontFamily=Verdana;fontSize=12;html=1;" parent="1" vertex="1">
          <mxGeometry x="170" y="745" width="120" height="60" as="geometry" />
        </mxCell>
        <mxCell id="PEAU8iN8RodinJspLY0A-29" value="News Letter" style="verticalAlign=top;align=left;spacingTop=8;spacingLeft=2;spacingRight=12;shape=cube;size=10;direction=south;fontStyle=4;html=1;rounded=0;shadow=0;comic=0;labelBackgroundColor=none;strokeWidth=1;fontFamily=Verdana;fontSize=12" parent="1" vertex="1">
          <mxGeometry x="520" y="40" width="320" height="160" as="geometry" />
        </mxCell>
        <mxCell id="PEAU8iN8RodinJspLY0A-30" value="Content" style="shape=component;align=left;spacingLeft=36;rounded=0;shadow=0;comic=0;labelBackgroundColor=none;strokeWidth=1;fontFamily=Verdana;fontSize=12;html=1;" parent="1" vertex="1">
          <mxGeometry x="530" y="90" width="120" height="60" as="geometry" />
        </mxCell>
        <mxCell id="PEAU8iN8RodinJspLY0A-31" value="Promotions" style="shape=component;align=left;spacingLeft=36;rounded=0;shadow=0;comic=0;labelBackgroundColor=none;strokeWidth=1;fontFamily=Verdana;fontSize=12;html=1;" parent="1" vertex="1">
          <mxGeometry x="690" y="90" width="120" height="60" as="geometry" />
        </mxCell>
        <mxCell id="PEAU8iN8RodinJspLY0A-35" value="" style="rounded=0;orthogonalLoop=1;jettySize=auto;html=1;endArrow=halfCircle;endFill=0;endSize=6;strokeWidth=1;sketch=0;exitX=0.25;exitY=0;exitDx=0;exitDy=0;" parent="1" source="PEAU8iN8RodinJspLY0A-26" edge="1">
          <mxGeometry relative="1" as="geometry">
            <mxPoint x="910" y="680" as="sourcePoint" />
            <mxPoint x="1150" y="620" as="targetPoint" />
            <Array as="points">
              <mxPoint x="1220" y="620" />
            </Array>
          </mxGeometry>
        </mxCell>
        <mxCell id="PEAU8iN8RodinJspLY0A-36" value="" style="rounded=0;orthogonalLoop=1;jettySize=auto;html=1;endArrow=oval;endFill=0;sketch=0;sourcePerimeterSpacing=0;targetPerimeterSpacing=0;endSize=10;exitX=0.75;exitY=0;exitDx=0;exitDy=0;" parent="1" source="39150e848f15840c-7" edge="1">
          <mxGeometry relative="1" as="geometry">
            <mxPoint x="700" y="485" as="sourcePoint" />
            <mxPoint x="1150" y="620" as="targetPoint" />
            <Array as="points">
              <mxPoint x="1090" y="620" />
            </Array>
          </mxGeometry>
        </mxCell>
        <mxCell id="PEAU8iN8RodinJspLY0A-37" value="" style="ellipse;whiteSpace=wrap;html=1;align=center;aspect=fixed;fillColor=none;strokeColor=none;resizable=0;perimeter=centerPerimeter;rotatable=0;allowArrows=0;points=[];outlineConnect=1;" parent="1" vertex="1">
          <mxGeometry x="715" y="480" width="10" height="10" as="geometry" />
        </mxCell>
        <mxCell id="PEAU8iN8RodinJspLY0A-38" value="" style="rounded=0;orthogonalLoop=1;jettySize=auto;html=1;endArrow=halfCircle;endFill=0;endSize=6;strokeWidth=1;sketch=0;exitX=0.5;exitY=0;exitDx=0;exitDy=0;" parent="1" source="PEAU8iN8RodinJspLY0A-26" edge="1">
          <mxGeometry relative="1" as="geometry">
            <mxPoint x="960" y="615" as="sourcePoint" />
            <mxPoint x="600" y="460" as="targetPoint" />
            <Array as="points">
              <mxPoint x="1250" y="500" />
              <mxPoint x="600" y="500" />
            </Array>
          </mxGeometry>
        </mxCell>
        <mxCell id="PEAU8iN8RodinJspLY0A-39" value="" style="rounded=0;orthogonalLoop=1;jettySize=auto;html=1;endArrow=oval;endFill=0;sketch=0;sourcePerimeterSpacing=0;targetPerimeterSpacing=0;endSize=10;exitX=0.5;exitY=1;exitDx=0;exitDy=0;" parent="1" source="39150e848f15840c-10" edge="1">
          <mxGeometry relative="1" as="geometry">
            <mxPoint x="840" y="510" as="sourcePoint" />
            <mxPoint x="600" y="460" as="targetPoint" />
            <Array as="points" />
          </mxGeometry>
        </mxCell>
        <mxCell id="PEAU8iN8RodinJspLY0A-40" value="" style="ellipse;whiteSpace=wrap;html=1;align=center;aspect=fixed;fillColor=none;strokeColor=none;resizable=0;perimeter=centerPerimeter;rotatable=0;allowArrows=0;points=[];outlineConnect=1;" parent="1" vertex="1">
          <mxGeometry x="625" y="460" width="10" height="10" as="geometry" />
        </mxCell>
        <mxCell id="PEAU8iN8RodinJspLY0A-41" value="Management" style="verticalAlign=top;align=left;spacingTop=8;spacingLeft=2;spacingRight=12;shape=cube;size=10;direction=south;fontStyle=4;html=1;rounded=0;shadow=0;comic=0;labelBackgroundColor=none;strokeWidth=1;fontFamily=Verdana;fontSize=12" parent="1" vertex="1">
          <mxGeometry x="960" y="280" width="370" height="200" as="geometry" />
        </mxCell>
        <mxCell id="PEAU8iN8RodinJspLY0A-42" value="Reports" style="shape=component;align=left;spacingLeft=36;rounded=0;shadow=0;comic=0;labelBackgroundColor=none;strokeWidth=1;fontFamily=Verdana;fontSize=12;html=1;" parent="1" vertex="1">
          <mxGeometry x="980" y="310" width="120" height="40" as="geometry" />
        </mxCell>
        <mxCell id="PEAU8iN8RodinJspLY0A-43" value="Order Tracking" style="shape=component;align=left;spacingLeft=36;rounded=0;shadow=0;comic=0;labelBackgroundColor=none;strokeWidth=1;fontFamily=Verdana;fontSize=12;html=1;" parent="1" vertex="1">
          <mxGeometry x="1170" y="310" width="140" height="40" as="geometry" />
        </mxCell>
        <mxCell id="PEAU8iN8RodinJspLY0A-44" value="Inventory" style="shape=component;align=left;spacingLeft=36;rounded=0;shadow=0;comic=0;labelBackgroundColor=none;strokeWidth=1;fontFamily=Verdana;fontSize=12;html=1;" parent="1" vertex="1">
          <mxGeometry x="1170" y="380" width="140" height="40" as="geometry" />
        </mxCell>
        <mxCell id="PEAU8iN8RodinJspLY0A-45" value="Finances" style="shape=component;align=left;spacingLeft=36;rounded=0;shadow=0;comic=0;labelBackgroundColor=none;strokeWidth=1;fontFamily=Verdana;fontSize=12;html=1;" parent="1" vertex="1">
          <mxGeometry x="980" y="380" width="120" height="40" as="geometry" />
        </mxCell>
        <mxCell id="PEAU8iN8RodinJspLY0A-48" value="" style="ellipse;whiteSpace=wrap;html=1;align=center;aspect=fixed;fillColor=none;strokeColor=none;resizable=0;perimeter=centerPerimeter;rotatable=0;allowArrows=0;points=[];outlineConnect=1;" parent="1" vertex="1">
          <mxGeometry x="835" y="310" width="10" height="10" as="geometry" />
        </mxCell>
        <mxCell id="PEAU8iN8RodinJspLY0A-49" value="" style="rounded=0;orthogonalLoop=1;jettySize=auto;html=1;endArrow=halfCircle;endFill=0;endSize=6;strokeWidth=1;sketch=0;exitX=0.75;exitY=0;exitDx=0;exitDy=0;" parent="1" source="PEAU8iN8RodinJspLY0A-42" edge="1">
          <mxGeometry relative="1" as="geometry">
            <mxPoint x="860" y="315" as="sourcePoint" />
            <mxPoint x="1140" y="310" as="targetPoint" />
          </mxGeometry>
        </mxCell>
        <mxCell id="PEAU8iN8RodinJspLY0A-50" value="" style="rounded=0;orthogonalLoop=1;jettySize=auto;html=1;endArrow=oval;endFill=0;sketch=0;sourcePerimeterSpacing=0;targetPerimeterSpacing=0;endSize=10;exitX=0.25;exitY=0;exitDx=0;exitDy=0;" parent="1" source="PEAU8iN8RodinJspLY0A-43" edge="1">
          <mxGeometry relative="1" as="geometry">
            <mxPoint x="820" y="315" as="sourcePoint" />
            <mxPoint x="1140" y="310" as="targetPoint" />
          </mxGeometry>
        </mxCell>
        <mxCell id="PEAU8iN8RodinJspLY0A-51" value="" style="ellipse;whiteSpace=wrap;html=1;align=center;aspect=fixed;fillColor=none;strokeColor=none;resizable=0;perimeter=centerPerimeter;rotatable=0;allowArrows=0;points=[];outlineConnect=1;" parent="1" vertex="1">
          <mxGeometry x="835" y="310" width="10" height="10" as="geometry" />
        </mxCell>
        <mxCell id="PEAU8iN8RodinJspLY0A-52" value="" style="rounded=0;orthogonalLoop=1;jettySize=auto;html=1;endArrow=halfCircle;endFill=0;endSize=6;strokeWidth=1;sketch=0;" parent="1" edge="1">
          <mxGeometry relative="1" as="geometry">
            <mxPoint x="1275" y="380" as="sourcePoint" />
            <mxPoint x="1275" y="360" as="targetPoint" />
          </mxGeometry>
        </mxCell>
        <mxCell id="PEAU8iN8RodinJspLY0A-53" value="" style="rounded=0;orthogonalLoop=1;jettySize=auto;html=1;endArrow=oval;endFill=0;sketch=0;sourcePerimeterSpacing=0;targetPerimeterSpacing=0;endSize=10;exitX=0.75;exitY=1;exitDx=0;exitDy=0;" parent="1" source="PEAU8iN8RodinJspLY0A-43" edge="1">
          <mxGeometry relative="1" as="geometry">
            <mxPoint x="820" y="315" as="sourcePoint" />
            <mxPoint x="1275" y="360" as="targetPoint" />
          </mxGeometry>
        </mxCell>
        <mxCell id="PEAU8iN8RodinJspLY0A-54" value="" style="ellipse;whiteSpace=wrap;html=1;align=center;aspect=fixed;fillColor=none;strokeColor=none;resizable=0;perimeter=centerPerimeter;rotatable=0;allowArrows=0;points=[];outlineConnect=1;" parent="1" vertex="1">
          <mxGeometry x="835" y="310" width="10" height="10" as="geometry" />
        </mxCell>
        <mxCell id="PEAU8iN8RodinJspLY0A-55" value="Production" style="shape=component;align=left;spacingLeft=36;rounded=0;shadow=0;comic=0;labelBackgroundColor=none;strokeWidth=1;fontFamily=Verdana;fontSize=12;html=1;" parent="1" vertex="1">
          <mxGeometry x="1170" y="430" width="140" height="40" as="geometry" />
        </mxCell>
        <mxCell id="PEAU8iN8RodinJspLY0A-58" value="" style="ellipse;whiteSpace=wrap;html=1;align=center;aspect=fixed;fillColor=none;strokeColor=none;resizable=0;perimeter=centerPerimeter;rotatable=0;allowArrows=0;points=[];outlineConnect=1;" parent="1" vertex="1">
          <mxGeometry x="835" y="510" width="10" height="10" as="geometry" />
        </mxCell>
        <mxCell id="PEAU8iN8RodinJspLY0A-59" value="" style="rounded=0;orthogonalLoop=1;jettySize=auto;html=1;endArrow=halfCircle;endFill=0;endSize=6;strokeWidth=1;sketch=0;exitX=1;exitY=0.75;exitDx=0;exitDy=0;" parent="1" source="PEAU8iN8RodinJspLY0A-42" edge="1">
          <mxGeometry relative="1" as="geometry">
            <mxPoint x="860" y="515" as="sourcePoint" />
            <mxPoint x="1160" y="360" as="targetPoint" />
            <Array as="points">
              <mxPoint x="1130" y="340" />
              <mxPoint x="1130" y="360" />
            </Array>
          </mxGeometry>
        </mxCell>
        <mxCell id="PEAU8iN8RodinJspLY0A-61" value="" style="ellipse;whiteSpace=wrap;html=1;align=center;aspect=fixed;fillColor=none;strokeColor=none;resizable=0;perimeter=centerPerimeter;rotatable=0;allowArrows=0;points=[];outlineConnect=1;" parent="1" vertex="1">
          <mxGeometry x="835" y="510" width="10" height="10" as="geometry" />
        </mxCell>
        <mxCell id="PEAU8iN8RodinJspLY0A-63" value="" style="rounded=0;orthogonalLoop=1;jettySize=auto;html=1;endArrow=oval;endFill=0;sketch=0;sourcePerimeterSpacing=0;targetPerimeterSpacing=0;endSize=10;exitX=0.25;exitY=0;exitDx=0;exitDy=0;" parent="1" source="PEAU8iN8RodinJspLY0A-44" edge="1">
          <mxGeometry relative="1" as="geometry">
            <mxPoint x="820" y="515" as="sourcePoint" />
            <mxPoint x="1160" y="360" as="targetPoint" />
            <Array as="points">
              <mxPoint x="1205" y="360" />
            </Array>
          </mxGeometry>
        </mxCell>
        <mxCell id="PEAU8iN8RodinJspLY0A-64" value="" style="ellipse;whiteSpace=wrap;html=1;align=center;aspect=fixed;fillColor=none;strokeColor=none;resizable=0;perimeter=centerPerimeter;rotatable=0;allowArrows=0;points=[];outlineConnect=1;" parent="1" vertex="1">
          <mxGeometry x="835" y="510" width="10" height="10" as="geometry" />
        </mxCell>
        <mxCell id="PEAU8iN8RodinJspLY0A-65" value="" style="rounded=0;orthogonalLoop=1;jettySize=auto;html=1;endArrow=halfCircle;endFill=0;endSize=6;strokeWidth=1;sketch=0;exitX=1;exitY=0.25;exitDx=0;exitDy=0;" parent="1" source="PEAU8iN8RodinJspLY0A-45" edge="1">
          <mxGeometry relative="1" as="geometry">
            <mxPoint x="860" y="415" as="sourcePoint" />
            <mxPoint x="1240" y="370" as="targetPoint" />
            <Array as="points">
              <mxPoint x="1120" y="390" />
              <mxPoint x="1120" y="370" />
            </Array>
          </mxGeometry>
        </mxCell>
        <mxCell id="PEAU8iN8RodinJspLY0A-66" value="" style="rounded=0;orthogonalLoop=1;jettySize=auto;html=1;endArrow=oval;endFill=0;sketch=0;sourcePerimeterSpacing=0;targetPerimeterSpacing=0;endSize=10;exitX=0.5;exitY=1;exitDx=0;exitDy=0;" parent="1" source="PEAU8iN8RodinJspLY0A-43" edge="1">
          <mxGeometry relative="1" as="geometry">
            <mxPoint x="820" y="415" as="sourcePoint" />
            <mxPoint x="1240" y="370" as="targetPoint" />
          </mxGeometry>
        </mxCell>
        <mxCell id="PEAU8iN8RodinJspLY0A-67" value="" style="ellipse;whiteSpace=wrap;html=1;align=center;aspect=fixed;fillColor=none;strokeColor=none;resizable=0;perimeter=centerPerimeter;rotatable=0;allowArrows=0;points=[];outlineConnect=1;" parent="1" vertex="1">
          <mxGeometry x="835" y="410" width="10" height="10" as="geometry" />
        </mxCell>
        <mxCell id="PEAU8iN8RodinJspLY0A-71" value="" style="ellipse;whiteSpace=wrap;html=1;align=center;aspect=fixed;fillColor=none;strokeColor=none;resizable=0;perimeter=centerPerimeter;rotatable=0;allowArrows=0;points=[];outlineConnect=1;" parent="1" vertex="1">
          <mxGeometry x="835" y="410" width="10" height="10" as="geometry" />
        </mxCell>
        <mxCell id="PEAU8iN8RodinJspLY0A-72" value="" style="rounded=0;orthogonalLoop=1;jettySize=auto;html=1;endArrow=halfCircle;endFill=0;endSize=6;strokeWidth=1;sketch=0;exitX=0.25;exitY=1;exitDx=0;exitDy=0;" parent="1" source="PEAU8iN8RodinJspLY0A-7" edge="1">
          <mxGeometry relative="1" as="geometry">
            <mxPoint x="900" y="315" as="sourcePoint" />
            <mxPoint x="1070" y="160" as="targetPoint" />
            <Array as="points">
              <mxPoint x="1190" y="160" />
            </Array>
          </mxGeometry>
        </mxCell>
        <mxCell id="PEAU8iN8RodinJspLY0A-73" value="" style="rounded=0;orthogonalLoop=1;jettySize=auto;html=1;endArrow=oval;endFill=0;sketch=0;sourcePerimeterSpacing=0;targetPerimeterSpacing=0;endSize=10;exitX=0.75;exitY=1;exitDx=0;exitDy=0;" parent="1" source="PEAU8iN8RodinJspLY0A-6" edge="1">
          <mxGeometry relative="1" as="geometry">
            <mxPoint x="860" y="315" as="sourcePoint" />
            <mxPoint x="1070" y="160" as="targetPoint" />
            <Array as="points" />
          </mxGeometry>
        </mxCell>
        <mxCell id="PEAU8iN8RodinJspLY0A-74" value="" style="ellipse;whiteSpace=wrap;html=1;align=center;aspect=fixed;fillColor=none;strokeColor=none;resizable=0;perimeter=centerPerimeter;rotatable=0;allowArrows=0;points=[];outlineConnect=1;" parent="1" vertex="1">
          <mxGeometry x="1070" y="70" width="10" height="10" as="geometry" />
        </mxCell>
        <mxCell id="PEAU8iN8RodinJspLY0A-76" value="Utium Componant Diagram LVL 0" style="text;align=center;fontStyle=1;verticalAlign=middle;spacingLeft=3;spacingRight=3;strokeColor=none;rotatable=0;points=[[0,0.5],[1,0.5]];portConstraint=eastwest;html=1;" parent="1" vertex="1">
          <mxGeometry width="200" height="26" as="geometry" />
        </mxCell>
        <mxCell id="PEAU8iN8RodinJspLY0A-77" value="" style="rounded=0;orthogonalLoop=1;jettySize=auto;html=1;endArrow=halfCircle;endFill=0;endSize=6;strokeWidth=1;sketch=0;exitX=0;exitY=0.7;exitDx=0;exitDy=0;" parent="1" source="PEAU8iN8RodinJspLY0A-44" edge="1">
          <mxGeometry relative="1" as="geometry">
            <mxPoint x="1050" y="415" as="sourcePoint" />
            <mxPoint x="1160" y="440" as="targetPoint" />
            <Array as="points">
              <mxPoint x="1160" y="408" />
            </Array>
          </mxGeometry>
        </mxCell>
        <mxCell id="PEAU8iN8RodinJspLY0A-78" value="" style="rounded=0;orthogonalLoop=1;jettySize=auto;html=1;endArrow=oval;endFill=0;sketch=0;sourcePerimeterSpacing=0;targetPerimeterSpacing=0;endSize=10;exitX=0;exitY=0.3;exitDx=0;exitDy=0;" parent="1" source="PEAU8iN8RodinJspLY0A-55" edge="1">
          <mxGeometry relative="1" as="geometry">
            <mxPoint x="1010" y="415" as="sourcePoint" />
            <mxPoint x="1160" y="442" as="targetPoint" />
          </mxGeometry>
        </mxCell>
        <mxCell id="PEAU8iN8RodinJspLY0A-79" value="" style="ellipse;whiteSpace=wrap;html=1;align=center;aspect=fixed;fillColor=none;strokeColor=none;resizable=0;perimeter=centerPerimeter;rotatable=0;allowArrows=0;points=[];outlineConnect=1;" parent="1" vertex="1">
          <mxGeometry x="1025" y="410" width="10" height="10" as="geometry" />
        </mxCell>
        <mxCell id="PEAU8iN8RodinJspLY0A-80" value="" style="rounded=0;orthogonalLoop=1;jettySize=auto;html=1;endArrow=halfCircle;endFill=0;endSize=6;strokeWidth=1;sketch=0;exitX=0.5;exitY=1;exitDx=0;exitDy=0;" parent="1" source="PEAU8iN8RodinJspLY0A-7" edge="1">
          <mxGeometry relative="1" as="geometry">
            <mxPoint x="1050" y="315" as="sourcePoint" />
            <mxPoint x="1090" y="300" as="targetPoint" />
            <Array as="points">
              <mxPoint x="1220" y="240" />
              <mxPoint x="1090" y="240" />
            </Array>
          </mxGeometry>
        </mxCell>
        <mxCell id="PEAU8iN8RodinJspLY0A-81" value="" style="rounded=0;orthogonalLoop=1;jettySize=auto;html=1;endArrow=oval;endFill=0;sketch=0;sourcePerimeterSpacing=0;targetPerimeterSpacing=0;endSize=10;" parent="1" edge="1">
          <mxGeometry relative="1" as="geometry">
            <mxPoint x="1090" y="310" as="sourcePoint" />
            <mxPoint x="1090" y="300" as="targetPoint" />
            <Array as="points" />
          </mxGeometry>
        </mxCell>
        <mxCell id="PEAU8iN8RodinJspLY0A-82" value="" style="ellipse;whiteSpace=wrap;html=1;align=center;aspect=fixed;fillColor=none;strokeColor=none;resizable=0;perimeter=centerPerimeter;rotatable=0;allowArrows=0;points=[];outlineConnect=1;" parent="1" vertex="1">
          <mxGeometry x="1025" y="310" width="10" height="10" as="geometry" />
        </mxCell>
        <mxCell id="PEAU8iN8RodinJspLY0A-83" value="" style="rounded=0;orthogonalLoop=1;jettySize=auto;html=1;endArrow=halfCircle;endFill=0;endSize=6;strokeWidth=1;sketch=0;exitX=0.75;exitY=1;exitDx=0;exitDy=0;" parent="1" source="PEAU8iN8RodinJspLY0A-26" edge="1">
          <mxGeometry relative="1" as="geometry">
            <mxPoint x="1010" y="615" as="sourcePoint" />
            <mxPoint x="1280" y="820" as="targetPoint" />
          </mxGeometry>
        </mxCell>
        <mxCell id="PEAU8iN8RodinJspLY0A-84" value="" style="rounded=0;orthogonalLoop=1;jettySize=auto;html=1;endArrow=oval;endFill=0;sketch=0;sourcePerimeterSpacing=0;targetPerimeterSpacing=0;endSize=10;exitX=1;exitY=0.25;exitDx=0;exitDy=0;" parent="1" source="PEAU8iN8RodinJspLY0A-27" edge="1">
          <mxGeometry relative="1" as="geometry">
            <mxPoint x="970" y="615" as="sourcePoint" />
            <mxPoint x="1280" y="820" as="targetPoint" />
          </mxGeometry>
        </mxCell>
        <mxCell id="PEAU8iN8RodinJspLY0A-85" value="" style="ellipse;whiteSpace=wrap;html=1;align=center;aspect=fixed;fillColor=none;strokeColor=none;resizable=0;perimeter=centerPerimeter;rotatable=0;allowArrows=0;points=[];outlineConnect=1;" parent="1" vertex="1">
          <mxGeometry x="985" y="610" width="10" height="10" as="geometry" />
        </mxCell>
        <mxCell id="PEAU8iN8RodinJspLY0A-86" value="" style="rounded=0;orthogonalLoop=1;jettySize=auto;html=1;endArrow=halfCircle;endFill=0;endSize=6;strokeWidth=1;sketch=0;exitX=1;exitY=0.25;exitDx=0;exitDy=0;" parent="1" source="PEAU8iN8RodinJspLY0A-55" edge="1">
          <mxGeometry relative="1" as="geometry">
            <mxPoint x="1010" y="315" as="sourcePoint" />
            <mxPoint x="1120" y="120" as="targetPoint" />
            <Array as="points">
              <mxPoint x="1360" y="440" />
              <mxPoint x="1360" y="210" />
              <mxPoint x="1120" y="210" />
            </Array>
          </mxGeometry>
        </mxCell>
        <mxCell id="PEAU8iN8RodinJspLY0A-88" value="" style="ellipse;whiteSpace=wrap;html=1;align=center;aspect=fixed;fillColor=none;strokeColor=none;resizable=0;perimeter=centerPerimeter;rotatable=0;allowArrows=0;points=[];outlineConnect=1;" parent="1" vertex="1">
          <mxGeometry x="985" y="310" width="10" height="10" as="geometry" />
        </mxCell>
        <mxCell id="PEAU8iN8RodinJspLY0A-89" value="" style="rounded=0;orthogonalLoop=1;jettySize=auto;html=1;endArrow=halfCircle;endFill=0;endSize=6;strokeWidth=1;sketch=0;exitX=1;exitY=0.75;exitDx=0;exitDy=0;" parent="1" source="PEAU8iN8RodinJspLY0A-43" edge="1">
          <mxGeometry relative="1" as="geometry">
            <mxPoint x="980" y="540" as="sourcePoint" />
            <mxPoint x="1360" y="850" as="targetPoint" />
            <Array as="points">
              <mxPoint x="1340" y="340" />
              <mxPoint x="1340" y="510" />
              <mxPoint x="1360" y="510" />
            </Array>
          </mxGeometry>
        </mxCell>
        <mxCell id="PEAU8iN8RodinJspLY0A-90" value="" style="rounded=0;orthogonalLoop=1;jettySize=auto;html=1;endArrow=oval;endFill=0;sketch=0;sourcePerimeterSpacing=0;targetPerimeterSpacing=0;endSize=10;exitX=1;exitY=0.75;exitDx=0;exitDy=0;" parent="1" source="PEAU8iN8RodinJspLY0A-27" edge="1">
          <mxGeometry relative="1" as="geometry">
            <mxPoint x="970" y="515" as="sourcePoint" />
            <mxPoint x="1360" y="850" as="targetPoint" />
          </mxGeometry>
        </mxCell>
        <mxCell id="PEAU8iN8RodinJspLY0A-91" value="" style="ellipse;whiteSpace=wrap;html=1;align=center;aspect=fixed;fillColor=none;strokeColor=none;resizable=0;perimeter=centerPerimeter;rotatable=0;allowArrows=0;points=[];outlineConnect=1;" parent="1" vertex="1">
          <mxGeometry x="985" y="510" width="10" height="10" as="geometry" />
        </mxCell>
        <mxCell id="PEAU8iN8RodinJspLY0A-92" value="" style="rounded=0;orthogonalLoop=1;jettySize=auto;html=1;endArrow=halfCircle;endFill=0;endSize=6;strokeWidth=1;sketch=0;exitX=0.75;exitY=1;exitDx=0;exitDy=0;" parent="1" source="PEAU8iN8RodinJspLY0A-42" edge="1">
          <mxGeometry relative="1" as="geometry">
            <mxPoint x="1010" y="515" as="sourcePoint" />
            <mxPoint x="1160" y="460" as="targetPoint" />
            <Array as="points">
              <mxPoint x="1070" y="370" />
              <mxPoint x="1110" y="370" />
              <mxPoint x="1110" y="460" />
            </Array>
          </mxGeometry>
        </mxCell>
        <mxCell id="PEAU8iN8RodinJspLY0A-93" value="" style="rounded=0;orthogonalLoop=1;jettySize=auto;html=1;endArrow=oval;endFill=0;sketch=0;sourcePerimeterSpacing=0;targetPerimeterSpacing=0;endSize=10;exitX=0;exitY=0.7;exitDx=0;exitDy=0;" parent="1" source="PEAU8iN8RodinJspLY0A-55" edge="1">
          <mxGeometry relative="1" as="geometry">
            <mxPoint x="970" y="515" as="sourcePoint" />
            <mxPoint x="1160" y="458" as="targetPoint" />
          </mxGeometry>
        </mxCell>
        <mxCell id="PEAU8iN8RodinJspLY0A-94" value="" style="ellipse;whiteSpace=wrap;html=1;align=center;aspect=fixed;fillColor=none;strokeColor=none;resizable=0;perimeter=centerPerimeter;rotatable=0;allowArrows=0;points=[];outlineConnect=1;" parent="1" vertex="1">
          <mxGeometry x="985" y="510" width="10" height="10" as="geometry" />
        </mxCell>
        <mxCell id="PEAU8iN8RodinJspLY0A-95" value="Discounts" style="shape=component;align=left;spacingLeft=36;rounded=0;shadow=0;comic=0;labelBackgroundColor=none;strokeWidth=1;fontFamily=Verdana;fontSize=12;html=1;" parent="1" vertex="1">
          <mxGeometry x="1000" y="725" width="120" height="60" as="geometry" />
        </mxCell>
        <mxCell id="PEAU8iN8RodinJspLY0A-96" value="" style="rounded=0;orthogonalLoop=1;jettySize=auto;html=1;endArrow=halfCircle;endFill=0;endSize=6;strokeWidth=1;sketch=0;exitX=0.25;exitY=0;exitDx=0;exitDy=0;" parent="1" source="PEAU8iN8RodinJspLY0A-27" edge="1">
          <mxGeometry relative="1" as="geometry">
            <mxPoint x="1150" y="800" as="sourcePoint" />
            <mxPoint x="1130" y="770" as="targetPoint" />
            <Array as="points">
              <mxPoint x="1143" y="770" />
            </Array>
          </mxGeometry>
        </mxCell>
        <mxCell id="PEAU8iN8RodinJspLY0A-97" value="" style="rounded=0;orthogonalLoop=1;jettySize=auto;html=1;endArrow=oval;endFill=0;sketch=0;sourcePerimeterSpacing=0;targetPerimeterSpacing=0;endSize=10;exitX=1;exitY=0.75;exitDx=0;exitDy=0;" parent="1" source="PEAU8iN8RodinJspLY0A-95" edge="1">
          <mxGeometry relative="1" as="geometry">
            <mxPoint x="770" y="715" as="sourcePoint" />
            <mxPoint x="1130" y="770" as="targetPoint" />
          </mxGeometry>
        </mxCell>
        <mxCell id="PEAU8iN8RodinJspLY0A-98" value="" style="ellipse;whiteSpace=wrap;html=1;align=center;aspect=fixed;fillColor=none;strokeColor=none;resizable=0;perimeter=centerPerimeter;rotatable=0;allowArrows=0;points=[];outlineConnect=1;" parent="1" vertex="1">
          <mxGeometry x="740" y="710" width="10" height="10" as="geometry" />
        </mxCell>
        <mxCell id="PEAU8iN8RodinJspLY0A-99" value="" style="rounded=0;orthogonalLoop=1;jettySize=auto;html=1;endArrow=halfCircle;endFill=0;endSize=6;strokeWidth=1;sketch=0;exitX=0.75;exitY=1;exitDx=0;exitDy=0;" parent="1" source="39150e848f15840c-7" edge="1">
          <mxGeometry relative="1" as="geometry">
            <mxPoint x="810" y="615" as="sourcePoint" />
            <mxPoint x="1090" y="710" as="targetPoint" />
          </mxGeometry>
        </mxCell>
        <mxCell id="PEAU8iN8RodinJspLY0A-100" value="" style="rounded=0;orthogonalLoop=1;jettySize=auto;html=1;endArrow=oval;endFill=0;sketch=0;sourcePerimeterSpacing=0;targetPerimeterSpacing=0;endSize=10;exitX=0.75;exitY=0;exitDx=0;exitDy=0;" parent="1" source="PEAU8iN8RodinJspLY0A-95" edge="1">
          <mxGeometry relative="1" as="geometry">
            <mxPoint x="770" y="615" as="sourcePoint" />
            <mxPoint x="1090" y="710" as="targetPoint" />
          </mxGeometry>
        </mxCell>
        <mxCell id="PEAU8iN8RodinJspLY0A-101" value="" style="ellipse;whiteSpace=wrap;html=1;align=center;aspect=fixed;fillColor=none;strokeColor=none;resizable=0;perimeter=centerPerimeter;rotatable=0;allowArrows=0;points=[];outlineConnect=1;" parent="1" vertex="1">
          <mxGeometry x="740" y="610" width="10" height="10" as="geometry" />
        </mxCell>
        <mxCell id="PEAU8iN8RodinJspLY0A-105" value="" style="ellipse;whiteSpace=wrap;html=1;align=center;aspect=fixed;fillColor=none;strokeColor=none;resizable=0;perimeter=centerPerimeter;rotatable=0;allowArrows=0;points=[];outlineConnect=1;" parent="1" vertex="1">
          <mxGeometry x="695" y="510" width="10" height="10" as="geometry" />
        </mxCell>
        <mxCell id="PEAU8iN8RodinJspLY0A-110" value="" style="rounded=0;orthogonalLoop=1;jettySize=auto;html=1;endArrow=halfCircle;endFill=0;endSize=6;strokeWidth=1;sketch=0;exitX=0.333;exitY=1.017;exitDx=0;exitDy=0;exitPerimeter=0;" parent="1" source="PEAU8iN8RodinJspLY0A-11" edge="1">
          <mxGeometry relative="1" as="geometry">
            <mxPoint x="500" y="715" as="sourcePoint" />
            <mxPoint x="100" y="850" as="targetPoint" />
          </mxGeometry>
        </mxCell>
        <mxCell id="PEAU8iN8RodinJspLY0A-111" value="" style="rounded=0;orthogonalLoop=1;jettySize=auto;html=1;endArrow=oval;endFill=0;sketch=0;sourcePerimeterSpacing=0;targetPerimeterSpacing=0;endSize=10;exitX=0.25;exitY=0;exitDx=0;exitDy=0;" parent="1" source="PEAU8iN8RodinJspLY0A-13" edge="1">
          <mxGeometry relative="1" as="geometry">
            <mxPoint x="460" y="715" as="sourcePoint" />
            <mxPoint x="100" y="850" as="targetPoint" />
          </mxGeometry>
        </mxCell>
        <mxCell id="PEAU8iN8RodinJspLY0A-112" value="" style="ellipse;whiteSpace=wrap;html=1;align=center;aspect=fixed;fillColor=none;strokeColor=none;resizable=0;perimeter=centerPerimeter;rotatable=0;allowArrows=0;points=[];outlineConnect=1;" parent="1" vertex="1">
          <mxGeometry x="475" y="710" width="10" height="10" as="geometry" />
        </mxCell>
        <mxCell id="PEAU8iN8RodinJspLY0A-113" value="" style="rounded=0;orthogonalLoop=1;jettySize=auto;html=1;endArrow=halfCircle;endFill=0;endSize=6;strokeWidth=1;sketch=0;" parent="1" edge="1">
          <mxGeometry relative="1" as="geometry">
            <mxPoint x="130" y="690" as="sourcePoint" />
            <mxPoint x="250" y="850" as="targetPoint" />
            <Array as="points">
              <mxPoint x="130" y="850" />
            </Array>
          </mxGeometry>
        </mxCell>
        <mxCell id="PEAU8iN8RodinJspLY0A-114" value="" style="rounded=0;orthogonalLoop=1;jettySize=auto;html=1;endArrow=oval;endFill=0;sketch=0;sourcePerimeterSpacing=0;targetPerimeterSpacing=0;endSize=10;exitX=0.25;exitY=0;exitDx=0;exitDy=0;" parent="1" source="PEAU8iN8RodinJspLY0A-14" edge="1">
          <mxGeometry relative="1" as="geometry">
            <mxPoint x="460" y="715" as="sourcePoint" />
            <mxPoint x="250" y="850" as="targetPoint" />
          </mxGeometry>
        </mxCell>
        <mxCell id="PEAU8iN8RodinJspLY0A-115" value="" style="ellipse;whiteSpace=wrap;html=1;align=center;aspect=fixed;fillColor=none;strokeColor=none;resizable=0;perimeter=centerPerimeter;rotatable=0;allowArrows=0;points=[];outlineConnect=1;" parent="1" vertex="1">
          <mxGeometry x="475" y="710" width="10" height="10" as="geometry" />
        </mxCell>
        <mxCell id="PEAU8iN8RodinJspLY0A-116" value="" style="rounded=0;orthogonalLoop=1;jettySize=auto;html=1;endArrow=halfCircle;endFill=0;endSize=6;strokeWidth=1;sketch=0;exitX=0.25;exitY=1;exitDx=0;exitDy=0;" parent="1" source="PEAU8iN8RodinJspLY0A-28" edge="1">
          <mxGeometry relative="1" as="geometry">
            <mxPoint x="500" y="715" as="sourcePoint" />
            <mxPoint x="160" y="830" as="targetPoint" />
            <Array as="points">
              <mxPoint x="200" y="830" />
              <mxPoint x="180" y="830" />
            </Array>
          </mxGeometry>
        </mxCell>
        <mxCell id="PEAU8iN8RodinJspLY0A-117" value="" style="rounded=0;orthogonalLoop=1;jettySize=auto;html=1;endArrow=oval;endFill=0;sketch=0;sourcePerimeterSpacing=0;targetPerimeterSpacing=0;endSize=10;exitX=0.75;exitY=0;exitDx=0;exitDy=0;" parent="1" source="PEAU8iN8RodinJspLY0A-13" edge="1">
          <mxGeometry relative="1" as="geometry">
            <mxPoint x="460" y="715" as="sourcePoint" />
            <mxPoint x="160" y="830" as="targetPoint" />
          </mxGeometry>
        </mxCell>
        <mxCell id="PEAU8iN8RodinJspLY0A-118" value="" style="ellipse;whiteSpace=wrap;html=1;align=center;aspect=fixed;fillColor=none;strokeColor=none;resizable=0;perimeter=centerPerimeter;rotatable=0;allowArrows=0;points=[];outlineConnect=1;" parent="1" vertex="1">
          <mxGeometry x="475" y="710" width="10" height="10" as="geometry" />
        </mxCell>
        <mxCell id="PEAU8iN8RodinJspLY0A-119" value="" style="rounded=0;orthogonalLoop=1;jettySize=auto;html=1;endArrow=halfCircle;endFill=0;endSize=6;strokeWidth=1;sketch=0;exitX=0.75;exitY=1;exitDx=0;exitDy=0;" parent="1" source="PEAU8iN8RodinJspLY0A-28" edge="1">
          <mxGeometry relative="1" as="geometry">
            <mxPoint x="500" y="715" as="sourcePoint" />
            <mxPoint x="310" y="850" as="targetPoint" />
            <Array as="points">
              <mxPoint x="260" y="830" />
              <mxPoint x="310" y="830" />
            </Array>
          </mxGeometry>
        </mxCell>
        <mxCell id="PEAU8iN8RodinJspLY0A-120" value="" style="rounded=0;orthogonalLoop=1;jettySize=auto;html=1;endArrow=oval;endFill=0;sketch=0;sourcePerimeterSpacing=0;targetPerimeterSpacing=0;endSize=10;exitX=0.75;exitY=0;exitDx=0;exitDy=0;" parent="1" source="PEAU8iN8RodinJspLY0A-14" edge="1">
          <mxGeometry relative="1" as="geometry">
            <mxPoint x="460" y="715" as="sourcePoint" />
            <mxPoint x="310" y="850" as="targetPoint" />
          </mxGeometry>
        </mxCell>
        <mxCell id="PEAU8iN8RodinJspLY0A-121" value="" style="ellipse;whiteSpace=wrap;html=1;align=center;aspect=fixed;fillColor=none;strokeColor=none;resizable=0;perimeter=centerPerimeter;rotatable=0;allowArrows=0;points=[];outlineConnect=1;" parent="1" vertex="1">
          <mxGeometry x="475" y="710" width="10" height="10" as="geometry" />
        </mxCell>
        <mxCell id="PEAU8iN8RodinJspLY0A-122" value="" style="rounded=0;orthogonalLoop=1;jettySize=auto;html=1;endArrow=halfCircle;endFill=0;endSize=6;strokeWidth=1;sketch=0;exitX=0.75;exitY=0;exitDx=0;exitDy=0;" parent="1" source="PEAU8iN8RodinJspLY0A-28" edge="1">
          <mxGeometry relative="1" as="geometry">
            <mxPoint x="500" y="815" as="sourcePoint" />
            <mxPoint x="310" y="700" as="targetPoint" />
            <Array as="points">
              <mxPoint x="260" y="720" />
              <mxPoint x="310" y="720" />
            </Array>
          </mxGeometry>
        </mxCell>
        <mxCell id="PEAU8iN8RodinJspLY0A-123" value="" style="rounded=0;orthogonalLoop=1;jettySize=auto;html=1;endArrow=oval;endFill=0;sketch=0;sourcePerimeterSpacing=0;targetPerimeterSpacing=0;endSize=10;exitX=0.25;exitY=1;exitDx=0;exitDy=0;" parent="1" source="PEAU8iN8RodinJspLY0A-12" edge="1">
          <mxGeometry relative="1" as="geometry">
            <mxPoint x="460" y="815" as="sourcePoint" />
            <mxPoint x="310" y="700" as="targetPoint" />
          </mxGeometry>
        </mxCell>
        <mxCell id="PEAU8iN8RodinJspLY0A-124" value="" style="ellipse;whiteSpace=wrap;html=1;align=center;aspect=fixed;fillColor=none;strokeColor=none;resizable=0;perimeter=centerPerimeter;rotatable=0;allowArrows=0;points=[];outlineConnect=1;" parent="1" vertex="1">
          <mxGeometry x="475" y="810" width="10" height="10" as="geometry" />
        </mxCell>
        <mxCell id="PEAU8iN8RodinJspLY0A-125" value="Posts" style="shape=component;align=left;spacingLeft=36;rounded=0;shadow=0;comic=0;labelBackgroundColor=none;strokeWidth=1;fontFamily=Verdana;fontSize=12;html=1;" parent="1" vertex="1">
          <mxGeometry x="170" y="630" width="90" height="60" as="geometry" />
        </mxCell>
        <mxCell id="PEAU8iN8RodinJspLY0A-126" value="Forums" style="shape=component;align=left;spacingLeft=36;rounded=0;shadow=0;comic=0;labelBackgroundColor=none;strokeWidth=1;fontFamily=Verdana;fontSize=12;html=1;" parent="1" vertex="1">
          <mxGeometry x="350" y="745" width="90" height="60" as="geometry" />
        </mxCell>
        <mxCell id="PEAU8iN8RodinJspLY0A-127" value="Desk" style="shape=component;align=left;spacingLeft=36;rounded=0;shadow=0;comic=0;labelBackgroundColor=none;strokeWidth=1;fontFamily=Verdana;fontSize=12;html=1;" parent="1" vertex="1">
          <mxGeometry x="60" y="170" width="90" height="60" as="geometry" />
        </mxCell>
        <mxCell id="PEAU8iN8RodinJspLY0A-128" value="" style="rounded=0;orthogonalLoop=1;jettySize=auto;html=1;endArrow=halfCircle;endFill=0;endSize=6;strokeWidth=1;sketch=0;exitX=0.5;exitY=0;exitDx=0;exitDy=0;" parent="1" source="PEAU8iN8RodinJspLY0A-28" edge="1">
          <mxGeometry relative="1" as="geometry">
            <mxPoint x="590" y="615" as="sourcePoint" />
            <mxPoint x="230" y="700" as="targetPoint" />
          </mxGeometry>
        </mxCell>
        <mxCell id="PEAU8iN8RodinJspLY0A-129" value="" style="rounded=0;orthogonalLoop=1;jettySize=auto;html=1;endArrow=oval;endFill=0;sketch=0;sourcePerimeterSpacing=0;targetPerimeterSpacing=0;endSize=10;exitX=0.678;exitY=1.017;exitDx=0;exitDy=0;exitPerimeter=0;" parent="1" source="PEAU8iN8RodinJspLY0A-125" edge="1">
          <mxGeometry relative="1" as="geometry">
            <mxPoint x="193" y="690" as="sourcePoint" />
            <mxPoint x="230" y="700" as="targetPoint" />
          </mxGeometry>
        </mxCell>
        <mxCell id="PEAU8iN8RodinJspLY0A-130" value="" style="ellipse;whiteSpace=wrap;html=1;align=center;aspect=fixed;fillColor=none;strokeColor=none;resizable=0;perimeter=centerPerimeter;rotatable=0;allowArrows=0;points=[];outlineConnect=1;" parent="1" vertex="1">
          <mxGeometry x="520" y="610" width="10" height="10" as="geometry" />
        </mxCell>
        <mxCell id="PEAU8iN8RodinJspLY0A-131" value="" style="rounded=0;orthogonalLoop=1;jettySize=auto;html=1;endArrow=halfCircle;endFill=0;endSize=6;strokeWidth=1;sketch=0;exitX=1;exitY=0.25;exitDx=0;exitDy=0;" parent="1" source="PEAU8iN8RodinJspLY0A-28" edge="1">
          <mxGeometry relative="1" as="geometry">
            <mxPoint x="530" y="715" as="sourcePoint" />
            <mxPoint x="320" y="780" as="targetPoint" />
            <Array as="points">
              <mxPoint x="320" y="760" />
            </Array>
          </mxGeometry>
        </mxCell>
        <mxCell id="PEAU8iN8RodinJspLY0A-132" value="" style="rounded=0;orthogonalLoop=1;jettySize=auto;html=1;endArrow=oval;endFill=0;sketch=0;sourcePerimeterSpacing=0;targetPerimeterSpacing=0;endSize=10;exitX=0.25;exitY=1;exitDx=0;exitDy=0;" parent="1" source="PEAU8iN8RodinJspLY0A-126" edge="1">
          <mxGeometry relative="1" as="geometry">
            <mxPoint x="490" y="715" as="sourcePoint" />
            <mxPoint x="320" y="780" as="targetPoint" />
            <Array as="points">
              <mxPoint x="373" y="820" />
              <mxPoint x="320" y="820" />
            </Array>
          </mxGeometry>
        </mxCell>
        <mxCell id="PEAU8iN8RodinJspLY0A-133" value="" style="ellipse;whiteSpace=wrap;html=1;align=center;aspect=fixed;fillColor=none;strokeColor=none;resizable=0;perimeter=centerPerimeter;rotatable=0;allowArrows=0;points=[];outlineConnect=1;" parent="1" vertex="1">
          <mxGeometry x="505" y="710" width="10" height="10" as="geometry" />
        </mxCell>
        <mxCell id="PEAU8iN8RodinJspLY0A-137" value="" style="rounded=0;orthogonalLoop=1;jettySize=auto;html=1;endArrow=oval;endFill=0;sketch=0;sourcePerimeterSpacing=0;targetPerimeterSpacing=0;endSize=10;" parent="1" edge="1">
          <mxGeometry relative="1" as="geometry">
            <mxPoint x="400" y="600" as="sourcePoint" />
            <mxPoint x="400" y="540" as="targetPoint" />
            <Array as="points" />
          </mxGeometry>
        </mxCell>
        <mxCell id="PEAU8iN8RodinJspLY0A-138" value="" style="ellipse;whiteSpace=wrap;html=1;align=center;aspect=fixed;fillColor=none;strokeColor=none;resizable=0;perimeter=centerPerimeter;rotatable=0;allowArrows=0;points=[];outlineConnect=1;" parent="1" vertex="1">
          <mxGeometry x="505" y="510" width="10" height="10" as="geometry" />
        </mxCell>
        <mxCell id="PEAU8iN8RodinJspLY0A-139" value="" style="rounded=0;orthogonalLoop=1;jettySize=auto;html=1;endArrow=halfCircle;endFill=0;endSize=6;strokeWidth=1;sketch=0;exitX=0.75;exitY=1;exitDx=0;exitDy=0;" parent="1" source="PEAU8iN8RodinJspLY0A-11" edge="1">
          <mxGeometry relative="1" as="geometry">
            <mxPoint x="530" y="715" as="sourcePoint" />
            <mxPoint x="190" y="700" as="targetPoint" />
            <Array as="points">
              <mxPoint x="138" y="700" />
            </Array>
          </mxGeometry>
        </mxCell>
        <mxCell id="PEAU8iN8RodinJspLY0A-140" value="" style="rounded=0;orthogonalLoop=1;jettySize=auto;html=1;endArrow=oval;endFill=0;sketch=0;sourcePerimeterSpacing=0;targetPerimeterSpacing=0;endSize=10;exitX=0.25;exitY=1;exitDx=0;exitDy=0;" parent="1" source="PEAU8iN8RodinJspLY0A-125" edge="1">
          <mxGeometry relative="1" as="geometry">
            <mxPoint x="490" y="715" as="sourcePoint" />
            <mxPoint x="190" y="700" as="targetPoint" />
          </mxGeometry>
        </mxCell>
        <mxCell id="PEAU8iN8RodinJspLY0A-141" value="" style="ellipse;whiteSpace=wrap;html=1;align=center;aspect=fixed;fillColor=none;strokeColor=none;resizable=0;perimeter=centerPerimeter;rotatable=0;allowArrows=0;points=[];outlineConnect=1;" parent="1" vertex="1">
          <mxGeometry x="505" y="710" width="10" height="10" as="geometry" />
        </mxCell>
        <mxCell id="PEAU8iN8RodinJspLY0A-142" value="" style="rounded=0;orthogonalLoop=1;jettySize=auto;html=1;endArrow=halfCircle;endFill=0;endSize=6;strokeWidth=1;sketch=0;exitX=0;exitY=0.3;exitDx=0;exitDy=0;" parent="1" source="PEAU8iN8RodinJspLY0A-13" edge="1">
          <mxGeometry relative="1" as="geometry">
            <mxPoint x="530" y="715" as="sourcePoint" />
            <mxPoint x="370" y="700" as="targetPoint" />
            <Array as="points">
              <mxPoint x="50" y="883" />
              <mxPoint x="50" y="730" />
              <mxPoint x="370" y="730" />
            </Array>
          </mxGeometry>
        </mxCell>
        <mxCell id="PEAU8iN8RodinJspLY0A-143" value="" style="rounded=0;orthogonalLoop=1;jettySize=auto;html=1;endArrow=oval;endFill=0;sketch=0;sourcePerimeterSpacing=0;targetPerimeterSpacing=0;endSize=10;exitX=0.75;exitY=1;exitDx=0;exitDy=0;" parent="1" source="PEAU8iN8RodinJspLY0A-12" edge="1">
          <mxGeometry relative="1" as="geometry">
            <mxPoint x="490" y="715" as="sourcePoint" />
            <mxPoint x="370" y="700" as="targetPoint" />
          </mxGeometry>
        </mxCell>
        <mxCell id="PEAU8iN8RodinJspLY0A-144" value="" style="ellipse;whiteSpace=wrap;html=1;align=center;aspect=fixed;fillColor=none;strokeColor=none;resizable=0;perimeter=centerPerimeter;rotatable=0;allowArrows=0;points=[];outlineConnect=1;" parent="1" vertex="1">
          <mxGeometry x="505" y="710" width="10" height="10" as="geometry" />
        </mxCell>
        <mxCell id="PEAU8iN8RodinJspLY0A-147" value="" style="ellipse;whiteSpace=wrap;html=1;align=center;aspect=fixed;fillColor=none;strokeColor=none;resizable=0;perimeter=centerPerimeter;rotatable=0;allowArrows=0;points=[];outlineConnect=1;" parent="1" vertex="1">
          <mxGeometry x="775" y="460" width="10" height="10" as="geometry" />
        </mxCell>
        <mxCell id="PEAU8iN8RodinJspLY0A-150" value="" style="rounded=0;orthogonalLoop=1;jettySize=auto;html=1;endArrow=halfCircle;endFill=0;endSize=6;strokeWidth=1;sketch=0;exitX=0.25;exitY=1;exitDx=0;exitDy=0;" parent="1" source="PEAU8iN8RodinJspLY0A-6" target="PEAU8iN8RodinJspLY0A-152" edge="1">
          <mxGeometry relative="1" as="geometry">
            <mxPoint x="710" y="355" as="sourcePoint" />
            <Array as="points">
              <mxPoint x="1010" y="160" />
              <mxPoint x="880" y="160" />
              <mxPoint x="880" y="290" />
              <mxPoint x="265" y="290" />
            </Array>
          </mxGeometry>
        </mxCell>
        <mxCell id="PEAU8iN8RodinJspLY0A-151" value="" style="rounded=0;orthogonalLoop=1;jettySize=auto;html=1;endArrow=oval;endFill=0;sketch=0;sourcePerimeterSpacing=0;targetPerimeterSpacing=0;endSize=10;exitX=0;exitY=0;exitDx=0;exitDy=215;exitPerimeter=0;" parent="1" source="PEAU8iN8RodinJspLY0A-10" target="PEAU8iN8RodinJspLY0A-152" edge="1">
          <mxGeometry relative="1" as="geometry">
            <mxPoint x="260" y="550" as="sourcePoint" />
            <Array as="points">
              <mxPoint x="265" y="570" />
            </Array>
          </mxGeometry>
        </mxCell>
        <mxCell id="PEAU8iN8RodinJspLY0A-152" value="" style="ellipse;whiteSpace=wrap;html=1;align=center;aspect=fixed;fillColor=none;strokeColor=none;resizable=0;perimeter=centerPerimeter;rotatable=0;allowArrows=0;points=[];outlineConnect=1;" parent="1" vertex="1">
          <mxGeometry x="260" y="540" width="10" height="10" as="geometry" />
        </mxCell>
        <mxCell id="PEAU8iN8RodinJspLY0A-153" value="" style="rounded=0;orthogonalLoop=1;jettySize=auto;html=1;endArrow=halfCircle;endFill=0;endSize=6;strokeWidth=1;sketch=0;exitX=0.75;exitY=0;exitDx=0;exitDy=0;" parent="1" source="PEAU8iN8RodinJspLY0A-30" edge="1">
          <mxGeometry relative="1" as="geometry">
            <mxPoint x="800" y="265" as="sourcePoint" />
            <mxPoint x="930" y="90" as="targetPoint" />
            <Array as="points">
              <mxPoint x="620" y="70" />
              <mxPoint x="930" y="70" />
            </Array>
          </mxGeometry>
        </mxCell>
        <mxCell id="PEAU8iN8RodinJspLY0A-154" value="" style="rounded=0;orthogonalLoop=1;jettySize=auto;html=1;endArrow=oval;endFill=0;sketch=0;sourcePerimeterSpacing=0;targetPerimeterSpacing=0;endSize=10;exitX=0;exitY=0.3;exitDx=0;exitDy=0;" parent="1" source="PEAU8iN8RodinJspLY0A-6" edge="1">
          <mxGeometry relative="1" as="geometry">
            <mxPoint x="760" y="265" as="sourcePoint" />
            <mxPoint x="930" y="90" as="targetPoint" />
            <Array as="points">
              <mxPoint x="930" y="100" />
            </Array>
          </mxGeometry>
        </mxCell>
        <mxCell id="PEAU8iN8RodinJspLY0A-155" value="" style="ellipse;whiteSpace=wrap;html=1;align=center;aspect=fixed;fillColor=none;strokeColor=none;resizable=0;perimeter=centerPerimeter;rotatable=0;allowArrows=0;points=[];outlineConnect=1;" parent="1" vertex="1">
          <mxGeometry x="775" y="260" width="10" height="10" as="geometry" />
        </mxCell>
        <mxCell id="PEAU8iN8RodinJspLY0A-156" value="" style="rounded=0;orthogonalLoop=1;jettySize=auto;html=1;endArrow=halfCircle;endFill=0;endSize=6;strokeWidth=1;sketch=0;exitX=0.75;exitY=1;exitDx=0;exitDy=0;" parent="1" source="PEAU8iN8RodinJspLY0A-30" target="PEAU8iN8RodinJspLY0A-158" edge="1">
          <mxGeometry relative="1" as="geometry">
            <mxPoint x="800" y="265" as="sourcePoint" />
            <Array as="points">
              <mxPoint x="620" y="165" />
            </Array>
          </mxGeometry>
        </mxCell>
        <mxCell id="PEAU8iN8RodinJspLY0A-159" value="" style="rounded=0;orthogonalLoop=1;jettySize=auto;html=1;endArrow=oval;endFill=0;sketch=0;sourcePerimeterSpacing=0;targetPerimeterSpacing=0;endSize=10;exitX=0.25;exitY=1;exitDx=0;exitDy=0;" parent="1" source="PEAU8iN8RodinJspLY0A-31" target="PEAU8iN8RodinJspLY0A-158" edge="1">
          <mxGeometry relative="1" as="geometry">
            <mxPoint x="720" y="150" as="sourcePoint" />
            <mxPoint x="720" y="170" as="targetPoint" />
          </mxGeometry>
        </mxCell>
        <mxCell id="PEAU8iN8RodinJspLY0A-158" value="" style="ellipse;whiteSpace=wrap;html=1;align=center;aspect=fixed;fillColor=none;strokeColor=none;resizable=0;perimeter=centerPerimeter;rotatable=0;allowArrows=0;points=[];outlineConnect=1;" parent="1" vertex="1">
          <mxGeometry x="715" y="160" width="10" height="10" as="geometry" />
        </mxCell>
        <mxCell id="PEAU8iN8RodinJspLY0A-161" value="" style="rounded=0;orthogonalLoop=1;jettySize=auto;html=1;endArrow=oval;endFill=0;sketch=0;sourcePerimeterSpacing=0;targetPerimeterSpacing=0;endSize=10;exitX=1;exitY=0.65;exitDx=0;exitDy=0;exitPerimeter=0;" parent="1" source="PEAU8iN8RodinJspLY0A-6" edge="1">
          <mxGeometry relative="1" as="geometry">
            <mxPoint x="940" y="265" as="sourcePoint" />
            <mxPoint x="1120" y="120" as="targetPoint" />
            <Array as="points" />
          </mxGeometry>
        </mxCell>
        <mxCell id="PEAU8iN8RodinJspLY0A-162" value="" style="ellipse;whiteSpace=wrap;html=1;align=center;aspect=fixed;fillColor=none;strokeColor=none;resizable=0;perimeter=centerPerimeter;rotatable=0;allowArrows=0;points=[];outlineConnect=1;" parent="1" vertex="1">
          <mxGeometry x="955" y="260" width="10" height="10" as="geometry" />
        </mxCell>
        <mxCell id="PEAU8iN8RodinJspLY0A-165" value="" style="ellipse;whiteSpace=wrap;html=1;align=center;aspect=fixed;fillColor=none;strokeColor=none;resizable=0;perimeter=centerPerimeter;rotatable=0;allowArrows=0;points=[];outlineConnect=1;" parent="1" vertex="1">
          <mxGeometry x="555" y="560" width="10" height="10" as="geometry" />
        </mxCell>
        <mxCell id="PEAU8iN8RodinJspLY0A-166" value="" style="rounded=0;orthogonalLoop=1;jettySize=auto;html=1;endArrow=halfCircle;endFill=0;endSize=6;strokeWidth=1;sketch=0;exitX=1;exitY=0.25;exitDx=0;exitDy=0;" parent="1" source="PEAU8iN8RodinJspLY0A-25" edge="1">
          <mxGeometry relative="1" as="geometry">
            <mxPoint x="730" y="215" as="sourcePoint" />
            <mxPoint x="1010" y="30" as="targetPoint" />
            <Array as="points">
              <mxPoint x="480" y="95" />
              <mxPoint x="480" y="30" />
              <mxPoint x="670" y="30" />
            </Array>
          </mxGeometry>
        </mxCell>
        <mxCell id="PEAU8iN8RodinJspLY0A-167" value="" style="rounded=0;orthogonalLoop=1;jettySize=auto;html=1;endArrow=oval;endFill=0;sketch=0;sourcePerimeterSpacing=0;targetPerimeterSpacing=0;endSize=10;exitX=0.25;exitY=0;exitDx=0;exitDy=0;" parent="1" source="PEAU8iN8RodinJspLY0A-6" edge="1">
          <mxGeometry relative="1" as="geometry">
            <mxPoint x="690" y="215" as="sourcePoint" />
            <mxPoint x="1010" y="30" as="targetPoint" />
          </mxGeometry>
        </mxCell>
        <mxCell id="PEAU8iN8RodinJspLY0A-168" value="" style="ellipse;whiteSpace=wrap;html=1;align=center;aspect=fixed;fillColor=none;strokeColor=none;resizable=0;perimeter=centerPerimeter;rotatable=0;allowArrows=0;points=[];outlineConnect=1;" parent="1" vertex="1">
          <mxGeometry x="705" y="210" width="10" height="10" as="geometry" />
        </mxCell>
        <mxCell id="PEAU8iN8RodinJspLY0A-169" value="" style="rounded=0;orthogonalLoop=1;jettySize=auto;html=1;endArrow=halfCircle;endFill=0;endSize=6;strokeWidth=1;sketch=0;exitX=0.75;exitY=0;exitDx=0;exitDy=0;" parent="1" source="39150e848f15840c-5" edge="1">
          <mxGeometry relative="1" as="geometry">
            <mxPoint x="600" y="205" as="sourcePoint" />
            <mxPoint x="1070" y="30" as="targetPoint" />
            <Array as="points">
              <mxPoint x="133" y="30" />
              <mxPoint x="400" y="30" />
              <mxPoint x="400" y="10" />
              <mxPoint x="1070" y="10" />
            </Array>
          </mxGeometry>
        </mxCell>
        <mxCell id="PEAU8iN8RodinJspLY0A-170" value="" style="rounded=0;orthogonalLoop=1;jettySize=auto;html=1;endArrow=oval;endFill=0;sketch=0;sourcePerimeterSpacing=0;targetPerimeterSpacing=0;endSize=10;exitX=0.75;exitY=0;exitDx=0;exitDy=0;" parent="1" source="PEAU8iN8RodinJspLY0A-6" edge="1">
          <mxGeometry relative="1" as="geometry">
            <mxPoint x="560" y="205" as="sourcePoint" />
            <mxPoint x="1070" y="30" as="targetPoint" />
          </mxGeometry>
        </mxCell>
        <mxCell id="PEAU8iN8RodinJspLY0A-171" value="" style="ellipse;whiteSpace=wrap;html=1;align=center;aspect=fixed;fillColor=none;strokeColor=none;resizable=0;perimeter=centerPerimeter;rotatable=0;allowArrows=0;points=[];outlineConnect=1;" parent="1" vertex="1">
          <mxGeometry x="575" y="200" width="10" height="10" as="geometry" />
        </mxCell>
        <mxCell id="PEAU8iN8RodinJspLY0A-172" value="" style="rounded=0;orthogonalLoop=1;jettySize=auto;html=1;endArrow=halfCircle;endFill=0;endSize=6;strokeWidth=1;sketch=0;exitX=0.75;exitY=1;exitDx=0;exitDy=0;" parent="1" source="39150e848f15840c-5" edge="1">
          <mxGeometry relative="1" as="geometry">
            <mxPoint x="600" y="335" as="sourcePoint" />
            <mxPoint x="240" y="150" as="targetPoint" />
            <Array as="points">
              <mxPoint x="133" y="150" />
            </Array>
          </mxGeometry>
        </mxCell>
        <mxCell id="PEAU8iN8RodinJspLY0A-173" value="" style="rounded=0;orthogonalLoop=1;jettySize=auto;html=1;endArrow=oval;endFill=0;sketch=0;sourcePerimeterSpacing=0;targetPerimeterSpacing=0;endSize=10;exitX=0.25;exitY=1;exitDx=0;exitDy=0;" parent="1" source="PEAU8iN8RodinJspLY0A-25" edge="1">
          <mxGeometry relative="1" as="geometry">
            <mxPoint x="560" y="335" as="sourcePoint" />
            <mxPoint x="240" y="150" as="targetPoint" />
          </mxGeometry>
        </mxCell>
        <mxCell id="PEAU8iN8RodinJspLY0A-174" value="" style="ellipse;whiteSpace=wrap;html=1;align=center;aspect=fixed;fillColor=none;strokeColor=none;resizable=0;perimeter=centerPerimeter;rotatable=0;allowArrows=0;points=[];outlineConnect=1;" parent="1" vertex="1">
          <mxGeometry x="575" y="330" width="10" height="10" as="geometry" />
        </mxCell>
        <mxCell id="PEAU8iN8RodinJspLY0A-177" value="" style="ellipse;whiteSpace=wrap;html=1;align=center;aspect=fixed;fillColor=none;strokeColor=none;resizable=0;perimeter=centerPerimeter;rotatable=0;allowArrows=0;points=[];outlineConnect=1;" parent="1" vertex="1">
          <mxGeometry x="175" y="180" width="10" height="10" as="geometry" />
        </mxCell>
        <mxCell id="PEAU8iN8RodinJspLY0A-178" value="" style="rounded=0;orthogonalLoop=1;jettySize=auto;html=1;endArrow=halfCircle;endFill=0;endSize=6;strokeWidth=1;sketch=0;exitX=0.5;exitY=0;exitDx=0;exitDy=0;" parent="1" edge="1">
          <mxGeometry relative="1" as="geometry">
            <mxPoint x="605" y="379.9999999999999" as="sourcePoint" />
            <mxPoint x="170" y="215" as="targetPoint" />
            <Array as="points">
              <mxPoint x="605" y="270" />
              <mxPoint x="170" y="270" />
            </Array>
          </mxGeometry>
        </mxCell>
        <mxCell id="PEAU8iN8RodinJspLY0A-181" value="" style="rounded=0;orthogonalLoop=1;jettySize=auto;html=1;endArrow=oval;endFill=0;sketch=0;sourcePerimeterSpacing=0;targetPerimeterSpacing=0;endSize=10;exitX=1;exitY=0.75;exitDx=0;exitDy=0;" parent="1" source="PEAU8iN8RodinJspLY0A-127" edge="1">
          <mxGeometry relative="1" as="geometry">
            <mxPoint x="140" y="215" as="sourcePoint" />
            <mxPoint x="170" y="215" as="targetPoint" />
          </mxGeometry>
        </mxCell>
        <mxCell id="PEAU8iN8RodinJspLY0A-184" value="" style="ellipse;whiteSpace=wrap;html=1;align=center;aspect=fixed;fillColor=none;strokeColor=none;resizable=0;perimeter=centerPerimeter;rotatable=0;allowArrows=0;points=[];outlineConnect=1;" parent="1" vertex="1">
          <mxGeometry x="385" y="260" width="10" height="10" as="geometry" />
        </mxCell>
        <mxCell id="PEAU8iN8RodinJspLY0A-185" value="Enrollment" style="shape=component;align=left;spacingLeft=36;rounded=0;shadow=0;comic=0;labelBackgroundColor=none;strokeWidth=1;fontFamily=Verdana;fontSize=12;html=1;" parent="1" vertex="1">
          <mxGeometry x="210" y="170" width="120" height="60" as="geometry" />
        </mxCell>
        <mxCell id="PEAU8iN8RodinJspLY0A-188" value="" style="ellipse;whiteSpace=wrap;html=1;align=center;aspect=fixed;fillColor=none;strokeColor=none;resizable=0;perimeter=centerPerimeter;rotatable=0;allowArrows=0;points=[];outlineConnect=1;" parent="1" vertex="1">
          <mxGeometry x="385" y="260" width="10" height="10" as="geometry" />
        </mxCell>
        <mxCell id="PEAU8iN8RodinJspLY0A-189" value="" style="rounded=0;orthogonalLoop=1;jettySize=auto;html=1;endArrow=halfCircle;endFill=0;endSize=6;strokeWidth=1;sketch=0;exitX=0.769;exitY=-0.007;exitDx=0;exitDy=0;exitPerimeter=0;" parent="1" source="PEAU8iN8RodinJspLY0A-27" target="PEAU8iN8RodinJspLY0A-191" edge="1">
          <mxGeometry relative="1" as="geometry">
            <mxPoint x="1220" y="800" as="sourcePoint" />
            <Array as="points">
              <mxPoint x="1220" y="780" />
              <mxPoint x="1380" y="780" />
              <mxPoint x="1380" y="205" />
            </Array>
          </mxGeometry>
        </mxCell>
        <mxCell id="PEAU8iN8RodinJspLY0A-192" value="" style="rounded=0;orthogonalLoop=1;jettySize=auto;html=1;endArrow=oval;endFill=0;sketch=0;sourcePerimeterSpacing=0;targetPerimeterSpacing=0;endSize=10;exitX=1.02;exitY=0.593;exitDx=0;exitDy=0;exitPerimeter=0;" parent="1" source="PEAU8iN8RodinJspLY0A-185" target="PEAU8iN8RodinJspLY0A-191" edge="1">
          <mxGeometry relative="1" as="geometry">
            <mxPoint x="332" y="206" as="sourcePoint" />
            <mxPoint x="340" y="206" as="targetPoint" />
          </mxGeometry>
        </mxCell>
        <mxCell id="PEAU8iN8RodinJspLY0A-191" value="" style="ellipse;whiteSpace=wrap;html=1;align=center;aspect=fixed;fillColor=none;strokeColor=none;resizable=0;perimeter=centerPerimeter;rotatable=0;allowArrows=0;points=[];outlineConnect=1;" parent="1" vertex="1">
          <mxGeometry x="340" y="200" width="10" height="10" as="geometry" />
        </mxCell>
        <mxCell id="PEAU8iN8RodinJspLY0A-193" value="" style="rounded=0;orthogonalLoop=1;jettySize=auto;html=1;endArrow=halfCircle;endFill=0;endSize=6;strokeWidth=1;sketch=0;exitX=1;exitY=0.5;exitDx=0;exitDy=0;" parent="1" source="PEAU8iN8RodinJspLY0A-31" edge="1">
          <mxGeometry relative="1" as="geometry">
            <mxPoint x="820" y="120.24999999999999" as="sourcePoint" />
            <mxPoint x="920" y="119.74999999999999" as="targetPoint" />
          </mxGeometry>
        </mxCell>
        <mxCell id="PEAU8iN8RodinJspLY0A-194" value="" style="rounded=0;orthogonalLoop=1;jettySize=auto;html=1;endArrow=oval;endFill=0;sketch=0;sourcePerimeterSpacing=0;targetPerimeterSpacing=0;endSize=10;exitX=0;exitY=0.7;exitDx=0;exitDy=0;" parent="1" source="PEAU8iN8RodinJspLY0A-6" edge="1">
          <mxGeometry relative="1" as="geometry">
            <mxPoint x="680" y="125" as="sourcePoint" />
            <mxPoint x="920" y="120" as="targetPoint" />
          </mxGeometry>
        </mxCell>
        <mxCell id="PEAU8iN8RodinJspLY0A-195" value="" style="ellipse;whiteSpace=wrap;html=1;align=center;aspect=fixed;fillColor=none;strokeColor=none;resizable=0;perimeter=centerPerimeter;rotatable=0;allowArrows=0;points=[];outlineConnect=1;" parent="1" vertex="1">
          <mxGeometry x="695" y="120" width="10" height="10" as="geometry" />
        </mxCell>
        <mxCell id="mzZ8LcDlLRC5Kt0Lsac_-1" value="" style="rounded=0;orthogonalLoop=1;jettySize=auto;html=1;endArrow=halfCircle;endFill=0;endSize=6;strokeWidth=1;sketch=0;exitX=0;exitY=0.3;exitDx=0;exitDy=0;" parent="1" source="PEAU8iN8RodinJspLY0A-95" edge="1">
          <mxGeometry relative="1" as="geometry">
            <mxPoint x="900" y="335" as="sourcePoint" />
            <mxPoint x="780" y="170" as="targetPoint" />
            <Array as="points">
              <mxPoint x="920" y="743" />
              <mxPoint x="920" y="240" />
              <mxPoint x="780" y="240" />
            </Array>
          </mxGeometry>
        </mxCell>
        <mxCell id="mzZ8LcDlLRC5Kt0Lsac_-2" value="" style="rounded=0;orthogonalLoop=1;jettySize=auto;html=1;endArrow=oval;endFill=0;sketch=0;sourcePerimeterSpacing=0;targetPerimeterSpacing=0;endSize=10;exitX=0.75;exitY=1;exitDx=0;exitDy=0;" parent="1" source="PEAU8iN8RodinJspLY0A-31" edge="1">
          <mxGeometry relative="1" as="geometry">
            <mxPoint x="860" y="335" as="sourcePoint" />
            <mxPoint x="780" y="170" as="targetPoint" />
            <Array as="points" />
          </mxGeometry>
        </mxCell>
        <mxCell id="mzZ8LcDlLRC5Kt0Lsac_-3" value="" style="ellipse;whiteSpace=wrap;html=1;align=center;aspect=fixed;fillColor=none;strokeColor=none;resizable=0;perimeter=centerPerimeter;rotatable=0;allowArrows=0;points=[];outlineConnect=1;" parent="1" vertex="1">
          <mxGeometry x="875" y="330" width="10" height="10" as="geometry" />
        </mxCell>
        <mxCell id="mzZ8LcDlLRC5Kt0Lsac_-4" value="" style="rounded=0;orthogonalLoop=1;jettySize=auto;html=1;endArrow=halfCircle;endFill=0;endSize=6;strokeWidth=1;sketch=0;exitX=0;exitY=0.7;exitDx=0;exitDy=0;" parent="1" source="PEAU8iN8RodinJspLY0A-185" edge="1">
          <mxGeometry relative="1" as="geometry">
            <mxPoint x="530" y="280" as="sourcePoint" />
            <mxPoint x="180" y="95" as="targetPoint" />
            <Array as="points">
              <mxPoint x="200" y="210" />
              <mxPoint x="200" y="160" />
              <mxPoint x="200" y="95" />
            </Array>
          </mxGeometry>
        </mxCell>
        <mxCell id="mzZ8LcDlLRC5Kt0Lsac_-5" value="" style="rounded=0;orthogonalLoop=1;jettySize=auto;html=1;endArrow=oval;endFill=0;sketch=0;sourcePerimeterSpacing=0;targetPerimeterSpacing=0;endSize=10;exitX=1;exitY=0.25;exitDx=0;exitDy=0;" parent="1" source="39150e848f15840c-5" edge="1">
          <mxGeometry relative="1" as="geometry">
            <mxPoint x="500" y="285" as="sourcePoint" />
            <mxPoint x="180" y="95" as="targetPoint" />
          </mxGeometry>
        </mxCell>
        <mxCell id="mzZ8LcDlLRC5Kt0Lsac_-6" value="" style="ellipse;whiteSpace=wrap;html=1;align=center;aspect=fixed;fillColor=none;strokeColor=none;resizable=0;perimeter=centerPerimeter;rotatable=0;allowArrows=0;points=[];outlineConnect=1;" parent="1" vertex="1">
          <mxGeometry x="515" y="280" width="10" height="10" as="geometry" />
        </mxCell>
        <mxCell id="mzZ8LcDlLRC5Kt0Lsac_-7" value="" style="rounded=0;orthogonalLoop=1;jettySize=auto;html=1;endArrow=halfCircle;endFill=0;endSize=6;strokeWidth=1;sketch=0;exitX=0.5;exitY=1;exitDx=0;exitDy=0;" parent="1" source="PEAU8iN8RodinJspLY0A-6" edge="1">
          <mxGeometry relative="1" as="geometry">
            <mxPoint x="640" y="375" as="sourcePoint" />
            <mxPoint x="670" y="410" as="targetPoint" />
            <Array as="points">
              <mxPoint x="1040" y="260" />
              <mxPoint x="670" y="260" />
            </Array>
          </mxGeometry>
        </mxCell>
        <mxCell id="mzZ8LcDlLRC5Kt0Lsac_-8" value="" style="rounded=0;orthogonalLoop=1;jettySize=auto;html=1;endArrow=oval;endFill=0;sketch=0;sourcePerimeterSpacing=0;targetPerimeterSpacing=0;endSize=10;exitX=1;exitY=0.5;exitDx=0;exitDy=0;" parent="1" source="39150e848f15840c-10" edge="1">
          <mxGeometry relative="1" as="geometry">
            <mxPoint x="600" y="375" as="sourcePoint" />
            <mxPoint x="670" y="410" as="targetPoint" />
          </mxGeometry>
        </mxCell>
        <mxCell id="mzZ8LcDlLRC5Kt0Lsac_-9" value="" style="ellipse;whiteSpace=wrap;html=1;align=center;aspect=fixed;fillColor=none;strokeColor=none;resizable=0;perimeter=centerPerimeter;rotatable=0;allowArrows=0;points=[];outlineConnect=1;" parent="1" vertex="1">
          <mxGeometry x="615" y="370" width="10" height="10" as="geometry" />
        </mxCell>
        <mxCell id="mzZ8LcDlLRC5Kt0Lsac_-11" value="" style="rounded=0;orthogonalLoop=1;jettySize=auto;html=1;endArrow=halfCircle;endFill=0;endSize=6;strokeWidth=1;sketch=0;exitX=0.5;exitY=1;exitDx=0;exitDy=0;" parent="1" source="PEAU8iN8RodinJspLY0A-42" edge="1">
          <mxGeometry relative="1" as="geometry">
            <mxPoint x="1040" y="375" as="sourcePoint" />
            <mxPoint x="1040" y="370" as="targetPoint" />
          </mxGeometry>
        </mxCell>
        <mxCell id="mzZ8LcDlLRC5Kt0Lsac_-12" value="" style="rounded=0;orthogonalLoop=1;jettySize=auto;html=1;endArrow=oval;endFill=0;sketch=0;sourcePerimeterSpacing=0;targetPerimeterSpacing=0;endSize=10;exitX=0.5;exitY=0;exitDx=0;exitDy=0;" parent="1" source="PEAU8iN8RodinJspLY0A-45" edge="1">
          <mxGeometry relative="1" as="geometry">
            <mxPoint x="1000" y="375" as="sourcePoint" />
            <mxPoint x="1040" y="370" as="targetPoint" />
          </mxGeometry>
        </mxCell>
        <mxCell id="mzZ8LcDlLRC5Kt0Lsac_-13" value="" style="ellipse;whiteSpace=wrap;html=1;align=center;aspect=fixed;fillColor=none;strokeColor=none;resizable=0;perimeter=centerPerimeter;rotatable=0;allowArrows=0;points=[];outlineConnect=1;" parent="1" vertex="1">
          <mxGeometry x="1015" y="370" width="10" height="10" as="geometry" />
        </mxCell>
        <mxCell id="mzZ8LcDlLRC5Kt0Lsac_-15" value="" style="rounded=0;orthogonalLoop=1;jettySize=auto;html=1;endArrow=halfCircle;endFill=0;endSize=6;strokeWidth=1;sketch=0;exitX=0.25;exitY=1;exitDx=0;exitDy=0;" parent="1" source="PEAU8iN8RodinJspLY0A-42" edge="1">
          <mxGeometry relative="1" as="geometry">
            <mxPoint x="1040" y="315" as="sourcePoint" />
            <mxPoint x="300" y="240" as="targetPoint" />
            <Array as="points">
              <mxPoint x="1010" y="370" />
              <mxPoint x="880" y="370" />
              <mxPoint x="880" y="300" />
              <mxPoint x="300" y="300" />
            </Array>
          </mxGeometry>
        </mxCell>
        <mxCell id="mzZ8LcDlLRC5Kt0Lsac_-16" value="" style="rounded=0;orthogonalLoop=1;jettySize=auto;html=1;endArrow=oval;endFill=0;sketch=0;sourcePerimeterSpacing=0;targetPerimeterSpacing=0;endSize=10;exitX=0.75;exitY=1;exitDx=0;exitDy=0;" parent="1" source="PEAU8iN8RodinJspLY0A-185" edge="1">
          <mxGeometry relative="1" as="geometry">
            <mxPoint x="1000" y="315" as="sourcePoint" />
            <mxPoint x="300" y="240" as="targetPoint" />
          </mxGeometry>
        </mxCell>
        <mxCell id="mzZ8LcDlLRC5Kt0Lsac_-17" value="" style="ellipse;whiteSpace=wrap;html=1;align=center;aspect=fixed;fillColor=none;strokeColor=none;resizable=0;perimeter=centerPerimeter;rotatable=0;allowArrows=0;points=[];outlineConnect=1;" parent="1" vertex="1">
          <mxGeometry x="1015" y="310" width="10" height="10" as="geometry" />
        </mxCell>
        <mxCell id="mzZ8LcDlLRC5Kt0Lsac_-18" value="" style="rounded=0;orthogonalLoop=1;jettySize=auto;html=1;endArrow=halfCircle;endFill=0;endSize=6;strokeWidth=1;sketch=0;" parent="1" source="PEAU8iN8RodinJspLY0A-11" edge="1">
          <mxGeometry relative="1" as="geometry">
            <mxPoint x="420" y="315" as="sourcePoint" />
            <mxPoint x="560" y="160" as="targetPoint" />
            <Array as="points">
              <mxPoint x="115" y="440" />
              <mxPoint x="400" y="440" />
              <mxPoint x="400" y="240" />
              <mxPoint x="560" y="240" />
            </Array>
          </mxGeometry>
        </mxCell>
        <mxCell id="mzZ8LcDlLRC5Kt0Lsac_-19" value="" style="rounded=0;orthogonalLoop=1;jettySize=auto;html=1;endArrow=oval;endFill=0;sketch=0;sourcePerimeterSpacing=0;targetPerimeterSpacing=0;endSize=10;exitX=0.25;exitY=1;exitDx=0;exitDy=0;" parent="1" source="PEAU8iN8RodinJspLY0A-30" edge="1">
          <mxGeometry relative="1" as="geometry">
            <mxPoint x="380" y="315" as="sourcePoint" />
            <mxPoint x="560" y="160" as="targetPoint" />
          </mxGeometry>
        </mxCell>
        <mxCell id="mzZ8LcDlLRC5Kt0Lsac_-20" value="" style="ellipse;whiteSpace=wrap;html=1;align=center;aspect=fixed;fillColor=none;strokeColor=none;resizable=0;perimeter=centerPerimeter;rotatable=0;allowArrows=0;points=[];outlineConnect=1;" parent="1" vertex="1">
          <mxGeometry x="395" y="310" width="10" height="10" as="geometry" />
        </mxCell>
        <mxCell id="mzZ8LcDlLRC5Kt0Lsac_-22" value="" style="rounded=0;orthogonalLoop=1;jettySize=auto;html=1;endArrow=oval;endFill=0;sketch=0;sourcePerimeterSpacing=0;targetPerimeterSpacing=0;endSize=10;exitX=0.5;exitY=1;exitDx=0;exitDy=0;" parent="1" source="39150e848f15840c-5" edge="1">
          <mxGeometry relative="1" as="geometry">
            <mxPoint x="400" y="205" as="sourcePoint" />
            <mxPoint x="105" y="150" as="targetPoint" />
          </mxGeometry>
        </mxCell>
        <mxCell id="mzZ8LcDlLRC5Kt0Lsac_-23" value="" style="ellipse;whiteSpace=wrap;html=1;align=center;aspect=fixed;fillColor=none;strokeColor=none;resizable=0;perimeter=centerPerimeter;rotatable=0;allowArrows=0;points=[];outlineConnect=1;" parent="1" vertex="1">
          <mxGeometry x="415" y="200" width="10" height="10" as="geometry" />
        </mxCell>
        <mxCell id="mzZ8LcDlLRC5Kt0Lsac_-24" value="" style="rounded=0;orthogonalLoop=1;jettySize=auto;html=1;endArrow=halfCircle;endFill=0;endSize=6;strokeWidth=1;sketch=0;exitX=0.5;exitY=0;exitDx=0;exitDy=0;" parent="1" source="PEAU8iN8RodinJspLY0A-127" edge="1">
          <mxGeometry relative="1" as="geometry">
            <mxPoint x="440" y="205" as="sourcePoint" />
            <mxPoint x="105" y="150" as="targetPoint" />
          </mxGeometry>
        </mxCell>
        <mxCell id="mzZ8LcDlLRC5Kt0Lsac_-26" value="" style="ellipse;whiteSpace=wrap;html=1;align=center;aspect=fixed;fillColor=none;strokeColor=none;resizable=0;perimeter=centerPerimeter;rotatable=0;allowArrows=0;points=[];outlineConnect=1;" parent="1" vertex="1">
          <mxGeometry x="415" y="200" width="10" height="10" as="geometry" />
        </mxCell>
        <mxCell id="mzZ8LcDlLRC5Kt0Lsac_-30" value="" style="rounded=0;orthogonalLoop=1;jettySize=auto;html=1;endArrow=halfCircle;endFill=0;endSize=6;strokeWidth=1;sketch=0;exitX=0;exitY=0.7;exitDx=0;exitDy=0;" parent="1" source="PEAU8iN8RodinJspLY0A-42" edge="1">
          <mxGeometry relative="1" as="geometry">
            <mxPoint x="770" y="295" as="sourcePoint" />
            <mxPoint x="630" y="370" as="targetPoint" />
            <Array as="points">
              <mxPoint x="800" y="338" />
              <mxPoint x="800" y="310" />
              <mxPoint x="630" y="310" />
            </Array>
          </mxGeometry>
        </mxCell>
        <mxCell id="mzZ8LcDlLRC5Kt0Lsac_-31" value="" style="rounded=0;orthogonalLoop=1;jettySize=auto;html=1;endArrow=oval;endFill=0;sketch=0;sourcePerimeterSpacing=0;targetPerimeterSpacing=0;endSize=10;exitX=0.75;exitY=0;exitDx=0;exitDy=0;" parent="1" source="39150e848f15840c-10" edge="1">
          <mxGeometry relative="1" as="geometry">
            <mxPoint x="730" y="295" as="sourcePoint" />
            <mxPoint x="630" y="370" as="targetPoint" />
          </mxGeometry>
        </mxCell>
        <mxCell id="mzZ8LcDlLRC5Kt0Lsac_-32" value="" style="ellipse;whiteSpace=wrap;html=1;align=center;aspect=fixed;fillColor=none;strokeColor=none;resizable=0;perimeter=centerPerimeter;rotatable=0;allowArrows=0;points=[];outlineConnect=1;" parent="1" vertex="1">
          <mxGeometry x="745" y="290" width="10" height="10" as="geometry" />
        </mxCell>
        <mxCell id="mzZ8LcDlLRC5Kt0Lsac_-35" value="" style="rounded=0;orthogonalLoop=1;jettySize=auto;html=1;endArrow=halfCircle;endFill=0;endSize=6;strokeWidth=1;sketch=0;exitX=0.25;exitY=1;exitDx=0;exitDy=0;" parent="1" source="39150e848f15840c-10" edge="1">
          <mxGeometry relative="1" as="geometry">
            <mxPoint x="470" y="545" as="sourcePoint" />
            <mxPoint x="400" y="540" as="targetPoint" />
            <Array as="points">
              <mxPoint x="570" y="480" />
              <mxPoint x="400" y="480" />
            </Array>
          </mxGeometry>
        </mxCell>
        <mxCell id="mzZ8LcDlLRC5Kt0Lsac_-37" value="" style="ellipse;whiteSpace=wrap;html=1;align=center;aspect=fixed;fillColor=none;strokeColor=none;resizable=0;perimeter=centerPerimeter;rotatable=0;allowArrows=0;points=[];outlineConnect=1;" parent="1" vertex="1">
          <mxGeometry x="445" y="540" width="10" height="10" as="geometry" />
        </mxCell>
        <mxCell id="aHJj2abhccJLuoin1E6Z-1" value="User Interface" style="verticalAlign=top;align=left;spacingTop=8;spacingLeft=2;spacingRight=12;shape=cube;size=10;direction=south;fontStyle=4;html=1;rounded=0;shadow=0;comic=0;labelBackgroundColor=none;strokeWidth=1;fontFamily=Verdana;fontSize=12" parent="1" vertex="1">
          <mxGeometry x="545" y="630" width="265" height="190" as="geometry" />
        </mxCell>
        <mxCell id="aHJj2abhccJLuoin1E6Z-3" value="Authentication" style="shape=component;align=left;spacingLeft=36;rounded=0;shadow=0;comic=0;labelBackgroundColor=none;strokeWidth=1;fontFamily=Verdana;fontSize=12;html=1;" parent="1" vertex="1">
          <mxGeometry x="590" y="695" width="140" height="60" as="geometry" />
        </mxCell>
        <mxCell id="aHJj2abhccJLuoin1E6Z-4" value="" style="rounded=0;orthogonalLoop=1;jettySize=auto;html=1;endArrow=halfCircle;endFill=0;endSize=6;strokeWidth=1;sketch=0;exitX=0.75;exitY=1;exitDx=0;exitDy=0;" parent="1" source="39150e848f15840c-10" edge="1">
          <mxGeometry relative="1" as="geometry">
            <mxPoint x="710" y="645" as="sourcePoint" />
            <mxPoint x="630" y="590" as="targetPoint" />
          </mxGeometry>
        </mxCell>
        <mxCell id="aHJj2abhccJLuoin1E6Z-5" value="" style="rounded=0;orthogonalLoop=1;jettySize=auto;html=1;endArrow=oval;endFill=0;sketch=0;sourcePerimeterSpacing=0;targetPerimeterSpacing=0;endSize=10;exitX=0.286;exitY=0;exitDx=0;exitDy=0;exitPerimeter=0;" parent="1" source="aHJj2abhccJLuoin1E6Z-3" edge="1">
          <mxGeometry relative="1" as="geometry">
            <mxPoint x="670" y="645" as="sourcePoint" />
            <mxPoint x="630" y="590" as="targetPoint" />
          </mxGeometry>
        </mxCell>
        <mxCell id="aHJj2abhccJLuoin1E6Z-6" value="" style="ellipse;whiteSpace=wrap;html=1;align=center;aspect=fixed;fillColor=none;strokeColor=none;resizable=0;perimeter=centerPerimeter;rotatable=0;allowArrows=0;points=[];outlineConnect=1;" parent="1" vertex="1">
          <mxGeometry x="685" y="640" width="10" height="10" as="geometry" />
        </mxCell>
        <mxCell id="aHJj2abhccJLuoin1E6Z-7" value="" style="rounded=0;orthogonalLoop=1;jettySize=auto;html=1;endArrow=halfCircle;endFill=0;endSize=6;strokeWidth=1;sketch=0;exitX=0.372;exitY=1.003;exitDx=0;exitDy=0;exitPerimeter=0;" parent="1" source="PEAU8iN8RodinJspLY0A-6" edge="1">
          <mxGeometry relative="1" as="geometry">
            <mxPoint x="710" y="645" as="sourcePoint" />
            <mxPoint x="700" y="590" as="targetPoint" />
            <Array as="points">
              <mxPoint x="1025" y="230" />
              <mxPoint x="840" y="230" />
              <mxPoint x="840" y="590" />
            </Array>
          </mxGeometry>
        </mxCell>
        <mxCell id="aHJj2abhccJLuoin1E6Z-8" value="" style="rounded=0;orthogonalLoop=1;jettySize=auto;html=1;endArrow=oval;endFill=0;sketch=0;sourcePerimeterSpacing=0;targetPerimeterSpacing=0;endSize=10;" parent="1" edge="1">
          <mxGeometry relative="1" as="geometry">
            <mxPoint x="700" y="694" as="sourcePoint" />
            <mxPoint x="700" y="590" as="targetPoint" />
            <Array as="points" />
          </mxGeometry>
        </mxCell>
        <mxCell id="aHJj2abhccJLuoin1E6Z-9" value="" style="ellipse;whiteSpace=wrap;html=1;align=center;aspect=fixed;fillColor=none;strokeColor=none;resizable=0;perimeter=centerPerimeter;rotatable=0;allowArrows=0;points=[];outlineConnect=1;" parent="1" vertex="1">
          <mxGeometry x="685" y="640" width="10" height="10" as="geometry" />
        </mxCell>
        <mxCell id="aHJj2abhccJLuoin1E6Z-10" value="" style="rounded=0;orthogonalLoop=1;jettySize=auto;html=1;endArrow=halfCircle;endFill=0;endSize=6;strokeWidth=1;sketch=0;exitX=0.25;exitY=1;exitDx=0;exitDy=0;" parent="1" source="PEAU8iN8RodinJspLY0A-27" edge="1">
          <mxGeometry relative="1" as="geometry">
            <mxPoint x="700" y="635" as="sourcePoint" />
            <mxPoint x="750" y="430" as="targetPoint" />
            <Array as="points">
              <mxPoint x="1143" y="900" />
              <mxPoint x="880" y="900" />
              <mxPoint x="880" y="430" />
            </Array>
          </mxGeometry>
        </mxCell>
        <mxCell id="aHJj2abhccJLuoin1E6Z-11" value="" style="rounded=0;orthogonalLoop=1;jettySize=auto;html=1;endArrow=oval;endFill=0;sketch=0;sourcePerimeterSpacing=0;targetPerimeterSpacing=0;endSize=10;exitX=1;exitY=0.833;exitDx=0;exitDy=0;exitPerimeter=0;" parent="1" source="39150e848f15840c-10" edge="1">
          <mxGeometry relative="1" as="geometry">
            <mxPoint x="660" y="635" as="sourcePoint" />
            <mxPoint x="750" y="430" as="targetPoint" />
          </mxGeometry>
        </mxCell>
        <mxCell id="aHJj2abhccJLuoin1E6Z-12" value="" style="ellipse;whiteSpace=wrap;html=1;align=center;aspect=fixed;fillColor=none;strokeColor=none;resizable=0;perimeter=centerPerimeter;rotatable=0;allowArrows=0;points=[];outlineConnect=1;" parent="1" vertex="1">
          <mxGeometry x="675" y="630" width="10" height="10" as="geometry" />
        </mxCell>
        <mxCell id="cCMWp35b6a6mTbjJyhue-1" value="Pages" style="shape=component;align=left;spacingLeft=36;rounded=0;shadow=0;comic=0;labelBackgroundColor=none;strokeWidth=1;fontFamily=Verdana;fontSize=12;html=1;" vertex="1" parent="1">
          <mxGeometry x="365" y="865" width="90" height="60" as="geometry" />
        </mxCell>
        <mxCell id="cCMWp35b6a6mTbjJyhue-2" value="" style="rounded=0;orthogonalLoop=1;jettySize=auto;html=1;endArrow=halfCircle;endFill=0;endSize=6;strokeWidth=1;sketch=0;" edge="1" parent="1">
          <mxGeometry relative="1" as="geometry">
            <mxPoint x="310" y="830" as="sourcePoint" />
            <mxPoint x="410" y="850" as="targetPoint" />
            <Array as="points">
              <mxPoint x="410" y="830" />
            </Array>
          </mxGeometry>
        </mxCell>
        <mxCell id="cCMWp35b6a6mTbjJyhue-3" value="" style="rounded=0;orthogonalLoop=1;jettySize=auto;html=1;endArrow=oval;endFill=0;sketch=0;sourcePerimeterSpacing=0;targetPerimeterSpacing=0;endSize=10;exitX=0.5;exitY=0;exitDx=0;exitDy=0;" edge="1" parent="1" source="cCMWp35b6a6mTbjJyhue-1">
          <mxGeometry relative="1" as="geometry">
            <mxPoint x="670" y="935" as="sourcePoint" />
            <mxPoint x="410" y="850" as="targetPoint" />
          </mxGeometry>
        </mxCell>
        <mxCell id="cCMWp35b6a6mTbjJyhue-4" value="" style="ellipse;whiteSpace=wrap;html=1;align=center;aspect=fixed;fillColor=none;strokeColor=none;resizable=0;perimeter=centerPerimeter;rotatable=0;allowArrows=0;points=[];outlineConnect=1;" vertex="1" parent="1">
          <mxGeometry x="685" y="930" width="10" height="10" as="geometry" />
        </mxCell>
      </root>
    </mxGraphModel>
  </diagram>
</mxfile>
